<svg width="64" height="64" viewBox="0 0 64 64" fill="none" xmlns="http://www.w3.org/2000/svg">
<g clip-path="url(#clip0_790_2227)">
<path fill-rule="evenodd" clip-rule="evenodd" d="M63.9879 31.9935C63.9879 49.6635 49.6637 63.9879 31.9939 63.9879C14.3242 63.9879 0 49.6635 0 31.9935C0 14.3244 14.3242 0 31.9939 0C49.6636 0 63.9879 14.3243 63.9879 31.9935Z" fill="url(#paint0_linear_790_2227)"/>
<mask id="mask0_790_2227" style="mask-type:luminance" maskUnits="userSpaceOnUse" x="0" y="0" width="64" height="64">
<path d="M63.9879 31.9935C63.9879 49.6635 49.6637 63.9879 31.9939 63.9879C14.3242 63.9879 0 49.6635 0 31.9935C0 14.3244 14.3242 0 31.9939 0C49.6636 0 63.9879 14.3243 63.9879 31.9935Z" fill="white"/>
</mask>
<g mask="url(#mask0_790_2227)">
<path d="M70.3237 39.8002C70.4763 39.8431 71.1557 40.3242 70.9367 40.5399C70.8182 40.6585 70.6654 40.4764 70.4722 40.4344C70.2132 40.3783 70.0145 40.4465 69.8377 40.3073C69.6363 40.1495 69.5878 39.8067 69.3719 39.6096C69.263 39.5106 68.9746 39.377 68.7803 39.3976C68.4444 39.434 68.4477 39.8198 68.1459 39.9898C67.857 39.959 67.6861 40.043 67.4687 39.9683C67.2401 39.8908 67.1253 39.5947 66.9186 39.5676C66.7039 39.5387 66.1951 39.9141 66.1155 39.5881C66.0509 39.3257 66.4701 39.2388 66.4957 39.0595C66.523 38.8764 66.3312 38.5906 66.2419 38.5103C66.1535 38.4299 66.0289 38.4234 65.9247 38.3618C65.8169 38.2973 65.7332 38.1731 65.6075 38.1086C65.1648 37.877 64.4882 37.9713 64.3178 37.6005C64.2875 37.5351 64.3344 37.4623 64.2965 37.3679C64.2506 37.2521 64.0803 37.2148 64.0215 37.1148C63.8714 36.8561 63.9766 36.4759 64.2329 36.4376C64.4642 36.4031 64.9202 36.688 64.9732 36.8608C65.0015 36.9514 64.9539 37.0522 64.9732 37.1569C64.9971 37.282 65.184 37.5865 65.3538 37.6005C65.5729 37.6183 65.7022 37.2802 65.9034 37.1569C66.0428 37.0709 66.2708 36.9728 66.4539 36.9869C66.6335 37.0009 66.7542 37.1429 66.9607 37.2194C67.1087 37.2755 67.293 37.297 67.4687 37.3465C67.622 37.3904 67.755 37.48 67.9125 37.537C68.4161 37.7191 69.0152 37.8266 69.287 38.1507C69.3613 38.2394 69.3597 38.3702 69.4569 38.4673C69.5461 38.5579 70.0352 38.6457 70.0486 38.8484C70.0594 39.0025 69.8472 39.0109 69.8377 39.166C69.8179 39.4742 70.25 39.4555 70.3237 39.8002Z" fill="#8CC63F"/>
<path d="M64.2119 21.7182C64.2979 21.9722 64.3567 22.2225 64.4239 22.4589C64.1905 22.7484 63.7296 22.6419 63.3879 22.797C63.2271 22.8698 63.1828 23.137 63.0279 23.178C62.9035 23.2098 62.8073 23.0697 62.6898 23.0716C62.3861 23.0781 62.2375 23.5806 61.8648 23.4527C61.6517 23.5797 61.8733 24.0663 61.6112 24.1074C61.4247 24.1373 61.3223 23.8963 61.2091 23.7487C61.0722 23.5694 60.8768 23.4704 60.8714 23.3256C60.8657 23.1752 61.1748 22.9231 61.2725 22.8185C61.3927 22.6896 61.6286 22.4495 61.7799 22.4159C62.0617 22.3542 62.348 22.443 62.563 22.3533C62.748 22.2739 62.7588 21.9825 62.8587 21.9087C62.9436 21.8461 63.0401 21.8629 63.1128 21.8246C63.3089 21.7182 63.5209 21.352 63.4088 20.9784C63.3381 20.7421 62.9467 20.4843 63.1977 20.1957C63.5721 20.2358 64.0661 20.6048 64.1279 20.9784C64.1521 21.1241 64.0713 21.2698 64.0852 21.4221C64.0928 21.5099 64.174 21.6042 64.2119 21.7182Z" fill="#8CC63F"/>
<path d="M64.2964 19.413C64.2489 19.5213 64.1534 19.4989 64.0642 19.5615C63.9776 19.6222 63.8751 19.8155 63.7683 19.8361C63.5984 19.8678 63.4077 19.6698 63.239 19.71C63.0409 19.7567 63.1568 19.9089 63.0912 20.0901C62.9176 20.0528 62.6328 19.8594 62.626 19.667C62.6213 19.5456 62.7786 19.4709 62.8167 19.3289C62.8792 19.087 62.7168 18.9656 62.626 18.7367C62.6195 18.7022 62.6462 18.7003 62.6469 18.6732C62.8535 18.6293 63.2594 19.0188 63.7257 19.0963C64.0269 19.1458 64.2789 19.1187 64.2964 19.413Z" fill="#8CC63F"/>
<path d="M63.5147 40.8789C63.5362 41.0545 63.2295 41.0339 63.1975 40.92C63.2034 40.7845 63.4769 40.7416 63.5147 40.8789Z" fill="#8CC63F"/>
<path d="M62.0337 17.6374C62.2432 17.7476 62.7503 17.9988 62.3931 18.2295C62.1768 18.1492 61.9515 17.8755 62.0337 17.6374Z" fill="#8CC63F"/>
<path d="M61.0613 39.9486C61.3032 39.8169 61.5676 39.5273 61.9916 39.673C61.8987 39.9364 61.5799 39.9308 61.3786 40.0541C61.1745 40.1783 61.0021 40.3885 60.7441 40.4128C60.7243 40.3754 60.6966 40.3474 60.6592 40.3278C60.6581 40.0924 60.8937 40.0382 61.0613 39.9486Z" fill="#8CC63F"/>
<path d="M60.4906 35.9725C60.7387 35.9725 60.9727 35.8959 61.1452 35.993C61.1131 36.5226 60.293 36.1201 59.7502 36.2051C59.6343 36.2228 59.6003 36.3125 59.4746 36.2676C59.4817 36.0892 59.6751 35.908 59.8764 35.8875C60.0317 35.8716 60.2634 35.9716 60.4906 35.9725Z" fill="#8CC63F"/>
<path d="M60.7015 36.6273C60.7255 36.9206 60.3261 36.9523 60.215 37.1784C60.3908 37.4464 60.4591 37.8219 60.6593 38.0657C60.6508 38.2273 60.6919 38.4374 60.5956 38.5103C60.1702 38.5916 59.941 37.8266 59.7707 37.5585C59.4454 37.6192 59.7424 38.6607 59.306 38.5318C59.0919 38.4673 59.3087 38.1703 59.2633 37.9396C59.2238 37.7369 59.0252 37.6949 59.0097 37.537C58.9975 37.4063 59.1534 37.268 59.1999 37.1354C59.2671 36.9439 59.2244 36.575 59.4535 36.5647C59.5667 36.5591 59.7184 36.8029 59.792 36.8178C60.0447 36.8729 60.3448 36.561 60.7015 36.6273Z" fill="#8CC63F"/>
<path d="M59.919 39.7786C59.8412 39.9393 59.4064 39.8618 59.3696 39.7151C59.4437 39.5489 59.8829 39.5984 59.919 39.7786Z" fill="#8CC63F"/>
<path d="M59.5167 40.2857C59.4923 40.3175 59.464 40.3455 59.4329 40.3707C59.2721 40.3193 59.1008 40.2801 59.0522 40.1166C59.1709 39.9429 59.5115 40.0868 59.5167 40.2857Z" fill="#8CC63F"/>
<path d="M58.9461 39.7571C58.8389 39.9094 58.4668 39.745 58.3331 39.9056C58.1131 39.9 57.8916 39.8972 57.8467 39.7151C57.9102 39.56 58.1105 39.6665 58.2695 39.6516C58.525 39.6282 58.8784 39.4489 58.9461 39.7571Z" fill="#8CC63F"/>
<path d="M55.9645 47.8572C55.963 47.6704 55.8459 47.506 55.816 47.308C55.8054 47.2361 55.8267 47.1436 55.816 47.053C55.8022 46.9223 55.7375 46.8139 55.7526 46.7364C55.782 46.5963 55.9453 46.5813 55.9858 46.4608C56.0522 46.2638 55.9048 46.2329 55.9009 45.9957C55.8982 45.8294 56.0277 45.7482 56.113 45.5305C56.152 45.4306 56.1537 45.2429 56.1969 45.1719C56.252 45.0813 56.4858 45.0047 56.5776 44.9608C56.9018 44.8011 57.1618 44.5059 57.4877 44.4527C57.5699 44.4396 57.6819 44.4629 57.7413 44.4527C57.9331 44.419 58.1738 44.2584 58.4392 44.1986C58.6957 44.1407 58.9226 44.1622 59.1159 44.0501C59.328 43.9287 59.6281 43.6074 59.7076 43.4159C59.8042 43.1843 59.7759 42.9881 59.9614 42.9087C60.0526 42.8704 60.1418 42.9124 60.2362 42.8881C60.3341 42.862 60.5445 42.7621 60.6171 42.6976C60.7645 42.565 60.7886 42.3492 60.9553 42.211C61.0709 42.1157 61.2884 41.9691 61.4421 41.8943C61.5324 41.8486 61.7 41.8019 61.7796 41.8093C62.0782 41.8346 62.217 42.2512 62.5413 42.1689C62.6571 42.1391 62.7752 41.8934 62.8802 41.7458C63.0326 41.5301 63.1436 41.2396 63.4086 41.1751C63.6225 41.1228 63.8619 41.2573 63.9794 41.0687C64.0061 40.9351 63.8795 40.8557 63.9794 40.7726C64.2262 40.7885 64.6427 41.121 65.0154 41.1322C65.2162 41.1387 65.589 40.9127 65.629 41.2172C65.6468 41.3517 65.4785 41.46 65.4388 41.5973C65.4106 41.6945 65.4805 41.7477 65.4175 41.8514C65.2455 41.9196 65.0633 41.955 65.0582 42.1475C65.0517 42.3885 65.3994 42.5015 65.6076 42.6341C65.7507 42.7247 65.8698 42.8629 65.9463 42.9087C66.0113 42.947 66.1144 42.9657 66.1577 42.9928C66.295 43.0824 66.3922 43.2842 66.5812 43.2898C66.7959 43.2945 67.0106 43.0208 67.1306 42.7602C67.2712 42.4557 67.2791 42.0867 67.3417 41.7664C67.363 41.6599 67.4389 41.5553 67.4688 41.4497C67.5504 41.1602 67.6611 40.7698 67.9125 40.667C68.1651 40.9342 68.2512 41.4544 68.2094 41.8943C68.3781 42.0223 68.6752 41.9793 68.7163 42.2745C68.7307 42.3772 68.6656 42.5071 68.6741 42.6126C68.6885 42.791 68.821 42.947 68.8439 43.0992C68.8861 43.3813 68.7969 43.613 68.9277 43.8184C69.0928 44.0772 69.4163 44.0678 69.6258 44.3471C69.622 44.5209 69.6908 44.5909 69.7315 44.7273C69.7512 44.7917 69.7325 44.8973 69.7528 44.9393C69.8206 45.0803 70.0038 45.0943 70.0701 45.2139C70.1027 45.2727 70.0935 45.383 70.1336 45.4885C70.1914 45.6436 70.3307 45.7603 70.4296 45.9116C70.525 46.0583 70.6815 46.218 70.7044 46.3347C70.7468 46.5458 70.5939 46.6906 70.556 46.8634C70.5106 47.0736 70.556 47.3454 70.4722 47.5611C70.374 47.8152 70.132 48.0664 69.943 48.3859C69.788 48.6493 69.5772 48.9453 69.3507 49.1256C69.2172 49.233 69.0586 49.2947 68.9277 49.4021C68.7253 49.5665 68.5593 49.7804 68.3781 49.9728C68.1876 50.1736 67.9569 50.3277 67.8068 50.5005C67.5895 50.7518 67.4816 51.1581 67.1093 51.1983C66.8914 51.2225 66.696 51.2039 66.4958 51.2832C66.1827 51.4075 65.975 51.6372 65.8197 51.6429C65.6563 51.6485 65.5051 51.4514 65.3539 51.4318C65.1847 51.4093 65.0517 51.5597 64.8044 51.5578C64.7035 51.5578 64.6528 51.4981 64.5086 51.4523C64.2064 51.357 63.8741 51.3608 63.8319 51.0301C63.808 50.8499 63.9468 50.7686 63.9372 50.6061C63.928 50.4454 63.77 50.4043 63.7043 50.268C63.746 50.1223 63.7528 49.9392 63.5985 49.8448C63.5933 49.7131 63.6269 49.6197 63.6835 49.5487C63.5607 49.6011 63.3988 49.6338 63.26 49.7188C63.1061 49.8112 62.9951 50.0251 62.8168 49.9933C62.6495 49.9345 62.7778 49.7682 62.7532 49.6337C62.7346 49.531 62.5006 49.0939 62.3932 49.021C62.2711 48.937 61.8235 48.7688 61.6744 48.7455C61.0208 48.6427 60.6043 48.9921 60.0879 49.0425C59.9554 49.0547 59.8113 49.0201 59.6867 49.0425C59.2617 49.1163 58.7879 49.4535 58.5231 49.6758C58.0857 49.7197 57.6424 49.5861 57.1907 49.7188C56.7426 49.8495 56.4858 50.2231 55.7959 50.1195C55.659 50.0027 55.4161 49.9438 55.415 49.7393C55.4134 49.5786 55.6537 49.474 55.7322 49.3591C55.8156 49.2358 55.9581 48.9444 55.9645 48.767C55.9689 48.6259 55.8699 48.4578 55.8797 48.2803C55.8876 48.1421 55.9657 47.9945 55.9645 47.8572Z" fill="#8CC63F"/>
<path d="M55.6052 39.038C55.7205 39.0221 55.8065 38.9371 55.9224 38.9334C56.1686 38.924 56.4127 39.1155 56.7041 39.081C56.7678 39.1491 56.7244 39.2061 56.7261 39.3145C56.9733 39.4462 57.3791 39.4219 57.5078 39.6731C57.3225 39.8693 57.0474 39.7282 56.8099 39.6937C56.5952 39.6638 56.3667 39.6787 56.1333 39.6516C55.8375 39.6171 55.5698 39.4536 55.2879 39.4191C55.1165 39.3976 54.9413 39.4434 54.78 39.4191C54.5898 39.3901 53.8807 39.122 53.8706 38.9334C53.8604 38.7382 54.1898 38.6831 54.4836 38.7213C54.8637 38.7709 55.1176 39.1062 55.6052 39.038Z" fill="#8CC63F"/>
<path d="M56.1753 37.58C56.0157 37.5352 55.8657 37.5595 55.7957 37.5156C55.6508 37.4268 55.6722 37.1737 55.6257 37.0299C55.5792 36.8832 55.4037 36.8057 55.3093 36.6067C55.1714 36.3181 55.112 35.6727 55.478 35.6129C55.6253 35.5877 55.777 35.7017 55.8796 35.6764C56.0836 35.626 56.0477 35.3626 56.2181 35.2524C56.3125 35.1917 56.4857 35.2178 56.6202 35.1683C56.7586 35.1179 56.8627 34.9862 56.9583 34.8722C57.047 34.7667 57.1163 34.5892 57.2332 34.5136C57.3646 34.4267 57.4864 34.4248 57.5926 34.3436C57.8698 34.1325 57.8789 33.8373 58.1 33.5823C58.288 33.3666 58.5848 33.7897 58.6079 33.9634C58.713 34.0979 58.9198 34.1306 59.0095 34.2801C58.8851 34.6527 58.5336 34.6845 58.6079 35.2103C58.6202 35.2963 58.6784 35.456 58.735 35.5709C58.7953 35.6942 58.9742 35.8278 58.9673 35.909C58.9535 36.0668 58.6352 36.0594 58.5652 36.2257C58.501 36.3798 58.5699 36.39 58.5443 36.6273C58.4553 36.8001 58.2164 36.8412 58.1422 37.0513C58.0529 37.3026 58.1554 37.6276 57.9522 37.8126C57.8116 37.8051 57.6579 37.934 57.4875 37.9172C57.3022 37.9004 57.1254 37.6463 56.8311 37.6426C56.719 37.6417 56.5865 37.7145 56.4717 37.7061C56.3815 37.6996 56.3084 37.6164 56.1753 37.58Z" fill="#8CC63F"/>
<path d="M54.8072 37.1093C55.3451 37.1093 55.3451 37.9443 54.8072 37.9443C54.269 37.9443 54.269 37.1093 54.8072 37.1093Z" fill="#8CC63F"/>
<path d="M54.0184 37.0084C54.0845 37.0177 54.3185 37.3427 54.3147 37.4315C54.3073 37.5809 54.0836 37.5725 54.0184 37.7696C53.919 38.0732 54.0632 38.4178 53.8918 38.5738C53.7958 38.6317 53.6222 38.6149 53.469 38.6158C53.0854 38.3459 52.7818 38.0246 52.4537 37.664C52.3347 37.5333 52.1894 37.4193 52.1151 37.283C52.0052 37.0812 51.966 36.8589 51.8407 36.6702C51.7296 36.504 51.5261 36.3854 51.4173 36.2051C51.3289 36.0566 51.3204 35.8614 51.2275 35.7185C51.1401 35.5858 50.9926 35.5279 50.8885 35.4224C50.8212 35.3523 50.7826 35.244 50.7197 35.1683C50.4539 34.8498 49.9427 34.6845 49.9165 34.2165C50.0248 34.0932 50.1366 34.2632 50.3391 34.3015C50.4703 34.3267 50.6253 34.2913 50.7197 34.3221C50.9119 34.3875 51.0444 34.6873 51.2483 34.8508C51.3627 34.9432 51.5117 35.0067 51.6285 35.1048C51.7541 35.2103 51.8459 35.3607 51.9459 35.4224C52.0836 35.5064 52.2744 35.5615 52.4537 35.6764C52.6982 35.8315 53.1346 35.9931 53.1939 36.3116C53.2084 36.39 53.157 36.5236 53.1725 36.5853C53.2019 36.6964 53.3423 36.744 53.4263 36.8393C53.5303 36.957 53.5518 37.1335 53.7011 37.1569C53.8502 37.198 53.8571 36.9869 54.0184 37.0084Z" fill="#8CC63F"/>
<path d="M44.0369 32.5669C44.2189 32.6267 44.8267 33.3655 44.6501 33.7727C44.5998 33.8886 44.3904 34.038 44.1849 34.0053C43.7661 33.939 43.8462 33.0068 43.9734 32.6304C43.9852 32.6006 44.0069 32.5791 44.0369 32.5669Z" fill="#8CC63F"/>
<path d="M29.9735 43.2683C29.9923 43.0983 30.1135 42.819 30.2486 42.7181C30.4436 42.5734 30.7073 42.5883 30.9043 42.4856C31.0667 42.4006 31.2917 42.2605 31.4118 42.1054C31.5138 41.9728 31.5192 41.8224 31.6024 41.7243C31.659 41.6561 31.7871 41.6384 31.8555 41.5553C31.917 41.4806 31.9036 41.3423 32.004 41.2601C32.2977 41.134 32.3819 41.672 32.4274 42.0419C32.4407 42.1568 32.5006 42.2801 32.4899 42.3371C32.4595 42.5061 32.2737 42.5407 32.2154 42.6556C32.201 43.1188 32.019 43.5214 31.8555 43.9025C31.715 44.2313 31.6334 44.5918 31.5176 44.8758C31.4754 44.9785 31.3866 45.0588 31.3486 45.1504C31.196 45.51 31.1399 46.0751 30.8618 46.2292C30.762 46.2843 30.3756 46.3786 30.2695 46.3767C30.0105 46.373 29.7861 46.1787 29.7199 45.9546C29.6841 45.8341 29.7194 45.7089 29.6987 45.5735C29.673 45.4035 29.572 45.2587 29.5929 45.0654C29.6399 44.6357 30.059 44.4265 30.0794 44.0716C30.0949 43.8044 29.9442 43.5392 29.9735 43.2683Z" fill="#8CC63F"/>
<path d="M34.7954 10.8059C35.2925 10.9217 35.526 10.3603 35.197 10.0446C35.1199 9.97083 34.8605 9.94186 34.7536 9.76999C34.624 9.56358 34.642 9.28711 34.3301 9.34688C34.327 9.37115 34.334 9.40666 34.3087 9.41041C34.2795 9.87273 34.9528 9.98856 34.9431 10.3622C34.9385 10.5574 34.7318 10.5779 34.7954 10.8059ZM43.7195 8.20456C43.4868 8.20456 43.399 8.29703 43.2544 8.37455C43.1749 8.41658 43.013 8.43994 43.0644 8.56417C43.2672 8.53987 43.671 8.4474 43.7195 8.20456ZM49.2603 15.5433C49.3442 15.2743 49.2138 15.0025 49.0486 14.8241C48.8047 14.8661 48.9809 15.1201 48.9644 15.2687C48.9404 15.4788 48.7176 15.6245 48.7314 15.8393C48.6504 15.9346 48.5116 15.972 48.4993 16.1354C48.6337 16.2279 48.6925 16.0617 48.7951 15.9664C48.957 15.8141 49.2042 15.7245 49.2603 15.5433ZM26.4628 22.7549C26.4745 22.528 26.3763 22.357 26.3571 22.0357C25.9666 21.8004 25.675 22.2543 25.2789 22.2048C25.0354 22.174 24.8607 21.891 24.6022 21.9302C24.4596 21.9517 24.3891 22.1357 24.2422 22.1628C23.94 22.2179 23.8022 21.9208 23.4812 22.0357C23.0284 21.6911 22.826 21.1288 22.7197 20.4918C22.4731 20.1686 22.0967 20.4311 21.9162 20.6403C21.805 20.6384 21.6662 20.5786 21.6416 20.7038C21.5584 21.0942 22.1944 21.1363 22.1911 21.4015C22.1891 21.5743 21.9428 21.5575 21.8318 21.6761C21.7137 21.8013 21.7923 21.9134 21.6416 21.9928C21.2245 22.0432 21.0862 21.8153 21.0916 21.4435C20.9116 21.1699 20.6841 20.9709 20.5207 20.7458C20.4603 20.6627 20.37 20.5329 20.3515 20.4068C20.3364 20.3087 20.3984 20.1826 20.3728 20.0687C20.3269 19.8669 19.9508 19.7147 19.717 19.6035C19.467 19.4849 19.154 19.3719 18.9767 19.2234C18.8513 19.1169 18.792 18.9338 18.6809 18.8638C18.5864 18.804 18.4689 18.8171 18.3845 18.7582C18.2686 18.677 18.2879 18.5415 18.1309 18.5041C18.0513 18.4743 17.9285 18.5826 17.8772 18.6527C17.7741 19.1131 18.1496 19.1449 18.321 19.3495C18.439 19.4905 18.4978 19.7016 18.6174 19.7941C18.745 19.8931 18.9186 19.8744 19.0825 19.9416C19.1958 19.9883 19.2694 20.1294 19.3784 20.1957C19.5802 20.318 19.9044 20.3395 19.9284 20.5758C19.803 20.6618 19.5183 20.4516 19.4211 20.6608C19.396 20.7981 19.5301 20.8691 19.5269 20.999C19.5215 21.2073 19.2902 21.4351 19.0825 21.4015C19.0616 21.2773 19.1931 21.1764 19.1883 21.0419C19.1791 20.772 18.6382 20.3619 18.3637 20.2386C18.235 20.1798 18.0786 20.177 17.9615 20.1116C17.7538 19.9939 17.3902 19.7072 17.2636 19.54C17.1124 19.3401 16.9832 18.9693 16.6505 18.9898C16.5149 18.9992 16.4027 19.1234 16.2911 19.1813C16.1897 19.2327 16.0775 19.2803 15.9739 19.3495C15.8505 19.4316 15.7501 19.5138 15.6353 19.5185C15.3699 19.5297 15.1445 19.3224 14.9165 19.3709C14.8395 19.3877 14.7755 19.4569 14.6837 19.54C14.6805 19.6633 14.7205 19.7427 14.705 19.8781C14.6361 19.9977 14.4316 19.9902 14.2821 20.0687C14.0632 20.1845 13.8682 20.4217 13.6898 20.5973C13.575 20.7113 13.4714 20.8047 13.4571 20.8934C13.4458 20.9635 13.5163 21.0961 13.4998 21.1904C13.481 21.2922 13.2893 21.5033 13.1612 21.5911C13.0863 21.6425 12.9871 21.65 12.9075 21.6976C12.7407 21.7957 12.666 21.9246 12.5267 21.9507C12.1571 22.0199 11.4853 21.877 11.4907 22.2683C11.4939 22.5298 11.8469 22.5308 12.0615 22.5214C12.3606 22.5102 12.6149 22.5849 12.7804 22.5429C12.8947 22.514 13.0196 22.386 13.1397 22.3318C13.2156 22.2973 13.2941 22.2973 13.3512 22.2683C13.4778 22.2048 13.5494 22.1011 13.6476 22.0563C13.8409 21.9685 14.2009 21.8994 14.4087 21.8872C14.6937 21.8704 14.9918 21.9171 15.3604 21.8872C15.4916 21.877 15.6214 21.7929 15.7624 21.7817C15.9926 21.7639 16.2953 21.8723 16.4812 21.8667C16.61 21.862 16.7536 21.7369 16.9041 21.7397C17.0746 21.7425 17.254 21.8629 17.2849 21.9722C17.3026 22.0339 17.2492 22.1329 17.2636 22.2263C17.2881 22.3795 17.4201 22.443 17.4121 22.5429C17.4008 22.6755 17.0708 22.8521 17.1157 23.0081C17.1451 23.1089 17.3816 23.2136 17.4964 23.2836C17.6165 23.3565 17.8195 23.4583 17.9615 23.4732C18.0812 23.4872 18.1869 23.4405 18.3001 23.4527C18.4823 23.4723 18.777 23.5834 18.8924 23.6638C19.0911 23.8039 19.0633 24.028 19.294 24.1074C19.3922 24.142 19.5696 24.1224 19.6956 24.1504C20.0037 24.2176 20.2323 24.4726 20.4572 24.4465C20.8113 24.4054 20.65 24.0719 20.69 23.8337C20.7803 23.2939 21.835 23.3182 22.0433 23.6852C22.1976 23.7263 22.3327 23.6918 22.5083 23.7487C22.6099 23.7814 22.6856 23.8926 22.7833 23.9178C22.857 23.9365 22.9643 23.9066 23.0584 23.9178C23.4637 23.9636 23.8311 24.2653 24.1793 24.2139C24.4003 24.1812 24.5606 23.9729 24.771 23.9598C25.1757 23.9346 25.4347 24.2615 25.8711 24.1074C26.1922 23.9953 26.1205 23.6628 26.2305 23.3256C26.307 23.0912 26.4542 22.9315 26.4628 22.7549ZM27.8165 20.2592C28.3896 20.1555 28.1278 19.6708 27.8374 19.498C27.6173 19.3672 27.3542 19.2523 27.0973 19.0963C26.9483 19.0048 26.3821 18.8339 26.3785 18.6527C26.3742 18.4537 26.7997 18.3883 26.6321 18.039C26.3426 17.968 25.6542 18.0792 25.7019 18.3977C25.729 18.5826 25.9475 18.4799 25.9976 18.6732C25.7905 18.747 25.5383 18.9404 25.321 18.9058C25.062 18.8656 24.9953 18.5471 24.8559 18.3556C24.6546 18.3622 24.5222 18.1604 24.285 18.1866C24.0362 18.2137 23.9042 18.5751 23.7772 18.7582C23.7098 18.8544 23.6025 18.9039 23.5656 18.9898C23.5438 19.0421 23.5677 19.1262 23.5448 19.2019C23.4721 19.4363 23.2687 19.5222 23.2906 19.7305C23.3104 19.9136 23.5095 19.9958 23.5236 20.1536C23.5095 20.3162 23.2489 20.2312 23.2697 20.4283C23.6483 20.7412 23.6692 20.2807 23.8621 20.2172C24.0169 20.1648 24.3208 20.2592 24.5172 20.2172C24.6759 20.1826 24.8008 20.0313 24.9825 19.9631C25.0935 19.922 25.2308 19.8846 25.3846 19.8781C26.0575 19.8501 26.4917 20.2882 27.0764 20.3012C27.2696 20.3059 27.6159 20.2956 27.8165 20.2592ZM32.7864 21.7817C32.8921 21.0485 32.3206 20.9934 32.2154 20.4703C32.264 20.4768 32.2388 20.4096 32.2791 20.4068C32.4179 20.3405 32.6278 20.5142 32.7013 20.3442C32.7029 20.0939 32.3853 19.9071 32.0668 20.0266C31.9751 19.964 31.9629 19.8211 31.9403 19.6885C31.7006 19.5456 31.1072 19.2336 31.1153 18.9478C31.1222 18.7134 31.4255 18.5807 31.7711 18.5882C31.9169 18.478 31.8231 18.1389 31.6868 18.0596C31.1399 17.94 30.8484 18.0213 30.5021 18.2716C30.3362 18.3911 30.1509 18.4743 30.0578 18.5462C29.9725 18.6125 29.8581 18.7937 29.8678 18.8843C29.8812 19.0151 30.0687 19.0926 30.1429 19.2654C30.1808 19.3541 30.1727 19.4662 30.2064 19.54C30.2988 19.7445 30.5353 19.8763 30.7138 20.0472C30.8398 20.1686 31.1932 20.4311 31.2003 20.5758C31.2067 20.6973 31.0917 20.7234 31.0528 20.8514C31.0128 20.9765 30.9669 21.2717 30.9894 21.38C31.0357 21.6126 31.2762 21.6201 31.4961 21.7182C31.7144 21.8162 31.925 21.9881 32.1518 21.9928C32.3939 21.9993 32.6513 21.9218 32.7864 21.7817ZM34.3515 19.0534C34.6943 18.988 34.3552 18.4397 34.0974 18.5041C33.7604 18.5882 34.1177 19.0982 34.3515 19.0534ZM39.2785 18.1866C39.199 18.0269 38.9705 18.2333 39.0676 18.3771C39.2107 18.3865 39.2622 18.3033 39.2785 18.1866ZM24.8559 39.1865C24.9398 39.0314 24.7224 38.9305 24.6867 38.7633C24.6449 38.5681 24.7341 38.3393 24.5595 38.2347H24.4966C24.3431 38.5812 24.56 39.1528 24.8559 39.1865ZM26.1456 37.0083C26.2172 36.8617 26.3847 36.7066 26.3571 36.5226C26.2961 36.1144 25.534 36.3152 25.4483 36.6067C25.3899 36.8028 25.4828 36.9579 25.4054 37.1568C25.4886 37.3128 25.6976 37.3436 25.9555 37.3259C26.0981 37.2633 26.0803 37.1428 26.1456 37.0083ZM26.4419 41.4281C26.5398 41.2731 26.6626 40.836 26.4419 40.7304H26.3998C26.3053 40.906 26.205 41.3301 26.4419 41.4281ZM14.7473 33.8569C14.1379 33.7681 13.5147 34.0138 13.0976 34.195C12.8567 34.3005 12.6116 34.4612 12.3996 34.4705C12.1988 34.4799 12.0012 34.364 11.8079 34.3435C11.5558 34.3173 11.2327 34.3416 10.9827 34.3855C10.7398 34.4294 10.5204 34.6032 10.3061 34.6181C9.89597 34.6489 9.5062 34.2492 9.24877 34.0474C9.0912 33.9251 8.93101 33.8242 8.78362 33.7093C8.62549 33.5851 8.42047 33.5103 8.29718 33.3917C8.13046 33.2311 8.13046 32.9509 8.04342 32.736C7.94039 32.4838 7.62682 32.2989 7.38773 32.0598C7.20866 31.8804 6.79816 31.6133 6.75322 31.3835C6.7308 31.2659 6.80339 31.1304 6.79536 31.0025C6.78424 30.8166 6.64479 30.712 6.6475 30.5793C6.65169 30.3935 6.87064 30.2496 6.92247 30.0927C6.94919 30.0124 6.93639 29.8994 6.96461 29.7966C7.02401 29.5827 7.16607 29.4548 7.13395 29.1409C7.12115 29.0167 7.01381 28.9018 7.00691 28.7393C7.00261 28.6281 7.08003 28.5665 7.07042 28.4647C7.05437 28.2844 6.82 28.2489 6.79536 28.0416C6.77079 27.8277 7 27.6511 7.13395 27.4074C7.19436 27.2981 7.22742 27.1309 7.2819 27.0478C7.40041 26.8675 7.59376 26.7806 7.68408 26.6032C7.75032 26.4724 7.77161 26.2791 7.83203 26.18C7.90993 26.0549 8.0648 25.9867 8.21275 25.8214C8.33286 25.6859 8.382 25.5225 8.46633 25.4618C8.57263 25.3852 8.73132 25.3665 8.84715 25.3142C9.23859 25.1358 9.52488 24.906 9.71392 24.5305C9.65628 24.1906 9.74326 24.0467 9.88316 23.8123C10.0124 23.5946 10.107 23.3873 10.3275 23.2621C10.5919 23.1127 10.8403 23.0987 11.0249 22.8185C11.1173 22.6774 11.2562 22.4355 11.2579 22.2898C11.2599 22.0806 11.0431 21.8125 10.8562 21.7817C10.6651 21.7509 10.3713 21.9265 10.264 21.7182C10.2298 21.6518 10.2768 21.4958 10.264 21.4221C10.2394 21.2838 10.1208 21.1858 10.116 21.084C10.1059 20.8859 10.3114 20.6786 10.3697 20.4497C10.4488 20.1378 10.3723 19.8996 10.3483 19.54C10.6442 19.0739 11.3011 19.3055 11.9558 19.3495C12.0541 19.3569 12.1667 19.3261 12.273 19.3289C12.6613 19.3383 12.9668 19.455 13.0976 19.1169C13.1467 18.9898 13.1906 18.5172 13.1612 18.3977C13.1264 18.2566 12.8487 17.8896 12.7168 17.8064C12.507 17.6729 12.2026 17.7308 12.0823 17.4889C12.1801 17.0713 12.6479 17.4188 12.9283 17.3198C13.0714 17.2694 13.0553 17.0209 13.1825 16.9807C13.269 16.9536 13.3795 17.0685 13.4998 17.0657C13.6022 17.0639 13.9735 16.878 14.0705 16.8117C14.2057 16.7201 14.2474 16.5305 14.3664 16.4521C14.4471 16.3998 14.5533 16.4063 14.6415 16.368C14.8214 16.2905 15.0489 16.1336 15.1702 15.9869C15.3448 15.7777 15.4233 15.518 15.6353 15.4798C15.9189 15.4284 16.5602 15.5358 16.6084 15.2257C16.6537 14.9305 16.3483 14.698 16.4604 14.3795C16.549 14.1282 16.7749 14.173 17.0949 14.0208C17.2492 14.1301 17.2043 14.443 17.2214 14.6344C17.4179 14.6354 17.8179 14.5756 17.8558 14.4009C17.9033 14.1833 17.5696 13.9619 17.4964 13.8302C17.4174 13.6873 17.4004 13.437 17.2427 13.4071C16.9207 13.3455 16.6078 13.8508 16.2062 13.8508C15.9424 13.8508 15.6626 13.6481 15.5931 13.4492C15.5536 13.3361 15.5894 13.2296 15.5717 13.111C15.5461 12.9382 15.4425 12.7589 15.4874 12.5189C15.6492 12.2414 16.0225 12.1966 16.2911 12.0537C16.3926 11.9995 16.4743 11.8847 16.5869 11.8426C16.7766 11.7726 17.0569 11.8426 17.2427 11.7361C17.3602 11.6698 17.3271 11.554 17.4121 11.4195C17.4648 11.3345 17.5941 11.285 17.6656 11.1869C17.7154 11.1187 17.7213 11.0169 17.7715 10.9544C17.9551 10.7255 18.2905 10.6414 18.4268 10.4042C18.487 10.2996 18.3226 10.2604 18.3637 10.1081C18.4321 9.96054 18.6959 10.0689 18.8497 10.0446C19.0602 10.0119 19.2545 9.75598 19.4841 9.70649C19.7239 9.65511 19.9807 9.68593 20.2035 9.60095C20.3364 9.54957 20.4588 9.42908 20.5842 9.41041C20.6286 9.40386 20.7535 9.43374 20.8165 9.43188C20.8971 9.42814 20.9842 9.37864 21.0916 9.36837C21.247 9.35248 21.4398 9.40572 21.6416 9.41041C21.9759 9.41787 22.2937 9.30953 22.572 9.43188C22.7176 9.49539 22.7011 9.65979 22.8889 9.72702C22.9835 9.76159 23.1084 9.71395 23.2485 9.72702C23.4556 9.74758 23.6719 9.89048 23.9465 9.91759C24.0442 9.92785 24.145 9.90544 24.2422 9.91759C24.5445 9.95493 24.8767 10.1137 25.1732 10.2137C25.4208 10.2977 25.9459 10.4023 25.9555 10.6368C25.9671 10.9151 25.4989 10.9964 25.2998 10.9964C24.967 10.9964 24.5265 10.8021 24.1793 10.9123C24.1845 11.3905 24.701 11.752 25.1732 11.6941C25.2147 11.469 24.9061 11.5942 24.9404 11.3765C25.1512 11.2178 25.4037 11.4839 25.7019 11.441C25.8182 11.4092 25.7985 11.2411 25.8283 11.1234C26.0799 10.9702 26.3949 10.7461 26.78 10.9123C26.7992 10.874 26.8275 10.846 26.865 10.8273C26.8901 10.5948 26.6112 10.4743 26.7592 10.2557C26.8329 10.1062 27.2272 10.1576 27.2879 10.2772C27.3183 10.4201 27.1902 10.4052 27.203 10.5312C27.2778 10.6994 27.4503 10.7265 27.5416 10.7218C27.7493 10.7106 27.7904 10.5247 27.986 10.4257C28.0649 10.3855 28.1808 10.3809 28.2816 10.3407C28.4014 10.293 28.5029 10.1969 28.599 10.1716C28.6694 10.1529 28.7758 10.1716 28.8739 10.1502C28.9989 10.124 29.1308 10.0231 29.2334 10.024C29.361 10.024 29.4522 10.1707 29.6141 10.1931C29.7023 10.2043 29.8027 10.1427 29.9314 10.1296C30.035 10.1184 30.1422 10.1417 30.2273 10.1296C30.4291 10.0997 30.568 9.99416 30.735 10.0026C30.8531 10.0091 31.0555 10.1679 31.1367 10.0876C31.2734 9.95121 30.9541 9.85033 31.0528 9.72702C31.3769 9.75226 31.7215 9.74477 32.0467 9.79055C32.53 9.85966 32.9849 10.0988 33.4207 10.1081C33.3796 9.81483 33.0431 9.89889 32.8921 9.76999C32.8461 9.73076 32.657 9.42067 32.6597 9.3254C32.6608 9.27777 32.8991 8.87146 32.9557 8.81822C33.142 8.64355 33.7534 8.64449 33.9281 8.88173C34.0477 9.04425 34.0081 9.28803 34.1818 9.28337C34.3313 9.27963 34.4108 8.91163 34.5839 8.9032C34.727 8.89574 34.7996 9.1386 34.9432 9.1358C35.1184 9.13206 35.2403 8.80607 35.472 8.79674C35.597 8.79206 35.6386 8.86119 35.8313 8.88173C35.9638 8.79675 35.7872 8.68466 35.8528 8.56417C36.0893 8.3923 36.6292 8.52306 36.931 8.41658C37.0154 8.3157 36.8236 8.24471 36.9101 8.14105C37.1707 7.95892 37.6087 7.94302 38.0524 7.86645C38.3238 7.82067 38.5796 7.63199 38.792 7.61238C39.0143 7.59276 39.2262 7.74315 39.4265 7.73941C39.5484 7.73755 39.6899 7.7011 39.8074 7.65535C39.9263 7.60865 40.0076 7.49377 40.1249 7.46481C40.3104 7.41903 40.5448 7.48628 40.7594 7.46481C40.9864 7.44145 41.1869 7.35366 41.3511 7.38074C41.5049 7.40502 41.6284 7.56848 41.7742 7.59184C42.2196 7.66095 42.6794 7.52459 43.0851 7.63387C43.1578 7.65349 43.231 7.72914 43.318 7.76089C43.5898 7.86084 43.7751 7.82908 43.826 8.16253C44.0396 8.23819 44.165 8.43433 44.4177 8.50158C44.5865 8.54547 44.7562 8.48011 44.9463 8.48011C45.1962 8.48011 45.5161 8.48943 45.7287 8.52214C45.8499 8.54081 45.9498 8.62954 46.0674 8.64915C46.1527 8.66316 46.2659 8.63983 46.3631 8.64915C46.4955 8.6613 46.6145 8.7164 46.7225 8.71268C46.9442 8.70614 47.1124 8.50813 47.2933 8.48011C47.3907 8.46516 47.5199 8.51465 47.6106 8.52214C47.9669 8.55202 48.3775 8.47542 48.6681 8.54361C48.8234 8.58004 49.089 8.75097 49.2604 8.88173C49.3848 8.97608 49.46 9.12739 49.5775 9.19836C49.6886 9.26562 49.9705 9.38705 50.0854 9.36837C50.2205 9.34688 50.2263 9.19556 50.3599 9.1358C50.7797 9.04239 51.5241 9.26936 51.8617 9.1143C51.9924 9.0536 51.9668 8.91535 52.0731 8.8397C52.7076 8.80795 53.3398 8.86586 53.9342 8.88173C54.143 8.88733 54.3588 8.82849 54.5478 8.86025C54.7571 8.89668 54.9098 9.10684 55.1181 9.17781C55.2569 9.22452 55.5016 9.20025 55.7105 9.24134C55.8507 9.26842 55.9657 9.35342 56.0696 9.36837C56.2957 9.40012 56.5115 9.34315 56.7262 9.3254C57.211 9.28711 57.8343 9.26095 58.3122 9.45241C58.5664 9.55517 58.6732 9.76067 58.946 9.79055C59.337 9.83444 59.9421 9.75878 60.3421 9.79055C60.4377 9.79896 60.5269 9.83819 60.5956 9.83352C60.7298 9.82323 60.8115 9.70929 60.9765 9.70649C61.1858 9.70182 61.5191 10.0325 61.823 9.98203C61.9538 9.89329 61.7178 9.76999 61.8431 9.68501C61.9623 9.586 62.1252 9.68407 62.3089 9.68501C62.4088 9.68593 62.5317 9.63457 62.6262 9.64298C62.8585 9.66351 63.0791 9.87181 63.3662 9.93906C63.5942 9.9923 63.9079 10.0119 64.1915 9.98203C64.3943 9.95868 64.5685 9.89048 64.7622 9.91759C64.8558 9.93065 64.9391 9.99885 65.0367 10.024C65.1271 10.0465 65.2151 10.025 65.2905 10.0446C65.3611 10.0642 65.431 10.1296 65.5025 10.1502C65.8955 10.2632 66.4188 10.3183 66.8348 10.4472C67.0795 10.5219 67.3295 10.6742 67.5328 10.6788C67.6328 10.6826 67.7219 10.6358 67.8501 10.6368C68.4888 10.6414 69.2403 10.9067 69.1815 11.5036C68.4338 11.668 67.8084 10.9889 67.0246 11.1869C66.8996 11.2187 66.7606 11.356 66.7712 11.483C66.8003 11.851 67.7289 11.8202 67.8068 12.1807C67.6547 12.2947 67.4885 12.1873 67.363 12.2022C67.1723 12.2246 66.8509 12.4255 66.7286 12.5403C66.5855 12.6739 66.46 13.0176 66.3057 13.0475C66.1166 13.0849 65.8282 12.8617 65.5441 12.9205C65.44 12.9429 65.3401 13.0728 65.2483 13.0905C65.0149 13.1344 64.7179 12.9635 64.5722 13.2381C64.649 13.4314 64.6022 13.7004 64.7622 13.8088C64.8653 13.8798 64.9946 13.8246 65.1217 13.8723C65.2702 13.9283 65.3524 14.1095 65.4805 14.2113C65.5858 14.2935 65.6979 14.2963 65.7561 14.4009C65.7695 14.5569 65.6941 14.5747 65.7134 14.6765C65.7465 14.8539 66.0237 14.8941 66.0307 15.0146C66.0402 15.1668 65.856 15.1342 65.8197 15.2892C65.8064 15.3873 65.9334 15.4134 65.9463 15.5433C65.9547 15.6292 65.8763 15.7198 65.8832 15.8179C65.8923 15.9589 66.0034 16.0532 65.9884 16.1775C65.9762 16.284 65.8832 16.368 65.7977 16.4101C65.3929 16.1504 65.0283 15.7917 64.5924 15.4583C64.1465 15.1164 63.4395 14.697 63.3662 13.9787C63.3637 13.8685 63.5996 13.7817 63.6409 13.6192C63.6579 13.5519 63.6146 13.4566 63.62 13.3651C63.635 13.1166 63.8401 12.8785 63.8319 12.7309C63.8218 12.5693 63.5202 12.2685 63.3662 12.2228C63.2435 12.2872 63.3648 12.4152 63.3449 12.5189C63.3205 12.6468 63.1656 12.8028 63.0277 12.8149C62.6278 12.8495 62.5828 12.3003 61.9489 12.4553C61.7849 12.4964 61.5544 12.744 61.611 13.0475C61.6284 13.14 61.8828 13.2399 61.8646 13.3651C61.8469 13.4865 61.2884 13.5229 61.1665 13.5136C60.8253 13.4856 60.6498 13.2306 60.3421 13.2381C60.191 13.2418 60.0585 13.3641 59.9399 13.3856C59.2739 13.508 58.2855 13.0578 58.0585 13.6397C58.0259 13.7219 58.0441 13.8293 58.0158 13.9143C57.9747 14.0367 57.8774 14.1329 57.8466 14.2113C57.8208 14.2758 57.8251 14.4047 57.783 14.5074C57.7446 14.599 57.3446 14.9604 57.6986 15.0566C57.783 15.08 57.8225 15.0211 57.9315 15.0361C58.1129 15.0604 58.4153 15.3518 58.6288 15.3527C58.7565 15.3536 58.9333 15.2089 59.0306 15.2052C59.2265 15.1958 59.368 15.3219 59.5169 15.3948C59.6591 15.4648 59.8765 15.6124 59.9826 15.6068C60.1824 15.5965 60.0868 15.4583 60.2786 15.3948C60.6444 15.504 60.8158 15.8907 61.1665 16.199C61.2938 16.3101 61.4817 16.4054 61.6532 16.5586C61.7487 16.6435 62.0429 16.8724 62.0553 16.9807C62.0665 17.0825 61.9729 17.1255 61.9489 17.2143C61.9147 17.3422 61.9949 17.4375 61.9068 17.5309C61.5693 17.4067 61.4935 17.0732 61.2511 16.7911C61.1613 16.6856 61.0709 16.5604 60.9344 16.4101C60.8724 16.3428 60.6481 16.1046 60.5108 16.1569C60.245 16.2578 60.6566 16.6604 60.7223 16.7491C60.8627 16.935 61.0492 17.1862 61.0614 17.3833C61.0693 17.5094 60.9792 17.7383 60.9765 17.954C60.9749 18.0997 61.0133 18.2323 60.9978 18.3556C60.9817 18.4799 60.8938 18.6209 60.8495 18.7582C60.7997 18.9133 60.7886 19.0982 60.7442 19.2019C60.662 19.3924 60.3853 19.6166 60.1935 19.625C60.018 19.6325 59.9426 19.4896 59.7707 19.498C59.5105 19.5101 59.4625 19.7501 59.306 19.9416C59.3193 20.1499 59.3846 20.2218 59.3482 20.3647C59.2911 20.5889 58.9793 20.6281 58.9888 20.8514C58.9975 21.0578 59.2739 21.0979 59.4112 21.1904C59.6004 21.3156 59.9304 21.5949 60.1097 21.8246C60.2272 21.975 60.397 22.2562 60.3848 22.4159C60.3687 22.6251 59.7664 22.9165 59.5169 22.839C59.2804 22.7661 59.3616 22.5401 59.306 22.3318C59.2627 22.1712 59.1373 22.103 59.0738 21.9722C59.04 21.904 59.0555 21.7957 59.0097 21.7182C58.8821 21.5033 58.6593 21.621 58.3959 21.4856C58.2236 21.3969 58.2738 21.211 58.206 21.0419C58.1151 20.814 57.7318 20.7066 57.424 20.7673C57.1977 20.8103 57.1272 21.0008 56.9162 21.0419C56.606 20.8579 56.9798 20.404 56.5991 20.3647C56.3075 20.3339 56.114 20.7832 55.9432 20.9149C55.8278 21.0027 55.6185 21.0214 55.6053 21.1475C55.5801 21.381 55.8514 21.3333 56.0696 21.4221C56.2679 21.5033 56.2909 21.7275 56.4718 21.7397C56.6231 21.7499 56.7234 21.5837 56.8736 21.5706C57.1335 21.5472 57.3446 21.664 57.5079 21.7611C57.4023 22.0171 56.8328 22.2048 56.8313 22.5429C56.8303 22.7391 57.0583 22.7727 57.2334 22.9025C57.3808 23.0118 57.5753 23.321 57.783 23.5367C57.8727 23.6301 58.018 23.6918 58.0585 23.7487C58.1562 23.8879 58.1407 24.0589 58.2482 24.1504C58.2663 24.2662 58.1953 24.2952 58.206 24.4045C58.2583 24.5567 58.4922 24.5277 58.5445 24.6791C58.5012 25.0442 58.653 25.387 58.3543 25.5253C58.2166 26.1791 58.0613 26.6909 57.6142 27.0478C57.2121 27.3681 56.6813 27.4625 56.197 27.6185C56.0713 27.6596 55.9709 27.7913 55.8588 27.8305C55.5774 27.9258 55.0764 27.8678 55.0556 28.2106C55.0439 28.3806 55.2703 28.4824 55.288 28.6552C55.3147 28.9196 55.0776 29.1858 54.9072 29.2045C54.7843 29.2184 54.5196 29.1325 54.5049 28.9083C54.4884 28.6562 54.8179 28.5534 54.8436 28.4012C54.8886 28.1322 54.6113 27.8697 54.2941 27.894C54.0147 27.9145 53.3794 28.475 53.3638 28.7823C53.3516 29.0111 53.8177 29.4874 53.9769 29.6275C54.5708 30.1506 55.2015 30.4654 55.0972 31.7422C54.9489 32.0663 54.5697 32.1354 54.2728 32.3129C54.0468 32.4493 53.9342 32.8696 53.5535 32.906C53.4007 32.8537 53.4898 32.6146 53.4476 32.5044C53.39 32.3521 53.0872 32.2783 52.898 32.1233C52.7433 31.9963 52.6782 31.7955 52.5595 31.6787C52.4116 31.533 52.1904 31.5031 52.0095 31.4041C51.8957 31.3415 51.8071 31.1239 51.6923 31.1295C51.5059 31.137 51.5706 31.3163 51.5235 31.6152C51.4765 31.9094 51.2618 32.1354 51.3329 32.4829C51.3628 32.6249 51.5402 32.7398 51.6286 32.8845C51.7755 33.1236 51.7959 33.4029 51.946 33.5402C52.0452 33.6299 52.214 33.6504 52.3267 33.7298C52.551 33.8905 52.9457 34.2379 53.0248 34.4285C53.1166 34.6508 53.0279 34.9133 53.0882 35.1477C53.1587 35.4186 53.5129 35.6119 53.3002 35.8875C53.0978 35.8501 52.9211 35.7175 52.7497 35.6129C52.4592 35.4326 52.3256 35.2775 52.1365 34.9786C52.081 34.8908 51.9988 34.8049 51.9673 34.7246C51.8936 34.535 51.9096 34.3201 51.8408 34.0904C51.7815 33.8924 51.5518 33.5785 51.375 33.4132C51.2267 33.2731 50.9633 33.1918 50.9522 32.9901C50.9367 32.7061 51.0482 32.3727 51.0371 32.0383C51.0344 31.9664 50.9853 31.8935 50.9739 31.8057C50.9516 31.6441 50.99 31.4452 50.9522 31.2985C50.9173 31.1631 50.8192 31.0417 50.762 30.9175C50.7054 30.796 50.6478 30.6737 50.5933 30.5158C50.5073 30.2711 50.411 29.7994 50.2124 29.7761C50.0004 29.7499 49.791 30.173 49.5145 30.1777C49.3724 30.1796 49.1834 30.0666 49.1551 29.9237C49.1284 29.7938 49.2218 29.6631 49.2185 29.522C49.2106 29.2381 49.0093 29.1288 48.8588 28.9298C48.7978 28.8495 48.7819 28.7356 48.7315 28.6758C48.6355 28.5609 48.4518 28.4974 48.33 28.3806C48.2141 28.2676 48.087 28.1069 48.0336 27.9995C47.952 27.8342 47.9256 27.6194 47.8012 27.597C47.6821 27.5764 47.5444 27.7473 47.4206 27.7875C47.2917 27.8305 46.9752 27.8847 46.8496 27.894C46.4251 27.9229 46.0806 27.8099 46.1308 28.3171C46.0645 28.5441 45.8243 28.5469 45.6652 28.6552C45.4628 28.7925 45.3154 29.069 45.0944 29.2894C44.987 29.3969 44.8315 29.4641 44.7349 29.564C44.6542 29.6472 44.6291 29.7807 44.5442 29.8601C44.3188 30.074 43.9803 30.0918 43.826 30.3897C43.8169 30.7409 43.9919 31.0062 43.9524 31.3406C43.9343 31.4928 43.8205 31.6273 43.8042 31.7842C43.7907 31.9197 43.8595 32.0645 43.826 32.2074C43.8072 32.2849 43.7217 32.3251 43.6562 32.4194C43.5974 32.5034 43.5738 32.6155 43.5302 32.6725C43.4586 32.764 43.3417 32.8276 43.2753 32.906C43.168 33.033 43.1455 33.1236 43.043 33.1386C42.5796 33.2049 42.4653 32.3232 42.2607 31.9542C42.1661 31.7842 41.9739 31.6311 41.8798 31.4256C41.7715 31.1883 41.7383 30.8904 41.5835 30.6214C41.4521 30.3916 41.2706 30.1618 41.1819 29.9237C41.1066 29.7219 41.0415 29.4697 40.9705 29.2465C40.8951 29.0111 40.8134 28.7141 40.8013 28.5282C40.7835 28.2536 40.8541 28.0845 40.6318 27.9781C40.428 28.0257 40.3371 28.2321 40.1032 28.2321C39.8776 28.2321 39.2717 27.8407 39.4483 27.4914C39.3005 27.2822 38.9283 27.1673 38.6442 26.9207C38.4819 26.7788 38.3349 26.4425 38.0524 26.4136C37.9744 26.4051 37.873 26.449 37.7984 26.4556C37.6194 26.4715 37.3021 26.4397 37.1003 26.4556C36.8467 26.4761 36.5332 26.5331 36.2122 26.4976C36.0054 26.4752 35.7485 26.435 35.5356 26.4136C35.2648 26.3855 34.9048 26.3211 34.7537 26.18C34.6597 26.0941 34.6218 25.8167 34.4568 25.7784C34.2608 25.7336 34.1528 25.8849 33.9708 25.9269C33.5831 26.0157 33.2595 25.8475 32.9977 25.6729C32.812 25.5496 32.6426 25.4861 32.5113 25.3983C32.1898 25.1834 32.1321 24.5352 31.644 24.5305C31.4742 24.5296 31.2041 24.6351 31.1789 24.8276C31.1622 24.9621 31.3396 25.2115 31.4117 25.3142C31.6489 25.6476 32.0845 25.7737 32.2154 26.223C32.303 26.2566 32.4814 26.1455 32.5748 26.2445C32.6566 26.4369 32.5738 26.7946 32.7649 26.8787C33.6441 27.0235 33.8949 26.5415 34.2881 26.2015C34.5161 26.351 34.4407 26.4808 34.5204 26.6461C34.6015 26.8142 34.7286 26.9469 34.8798 27.0057C34.986 27.0459 35.1223 27.0085 35.2819 27.0683C35.3817 27.1066 35.7987 27.5008 35.8111 27.6399C35.8217 27.7642 35.5372 28.1882 35.4507 28.2956C35.3669 28.4002 35.2371 28.4544 35.1971 28.5488C35.1671 28.6225 35.1766 28.7776 35.1547 28.8243C35.1157 28.9083 34.9258 29.0186 34.8162 29.1194C34.7008 29.2278 34.5662 29.3119 34.4568 29.395C34.3232 29.4977 34.2404 29.6388 34.0974 29.6911C33.816 29.7948 33.5483 29.7508 33.3151 29.9031C33.1622 30.0021 33.1617 30.2263 32.977 30.3468C32.7837 30.4719 32.453 30.4729 32.1727 30.6008C31.9928 30.6821 31.8848 30.8409 31.7295 30.8969C31.6658 30.9193 31.5863 30.8997 31.5175 30.9175C31.3769 30.9539 31.2472 31.0538 31.1153 31.0865C31.0112 31.1136 30.9007 31.0996 30.7981 31.1295C30.4724 31.2238 30.1739 31.5545 29.8464 31.362C29.6922 31.0053 29.6671 30.5569 29.487 30.2412C29.3952 30.0796 29.2147 30.0301 29.149 29.8601C29.1399 29.7247 29.3039 29.762 29.3177 29.649C29.2639 29.4202 29.0481 29.3137 28.9162 29.1194C28.8515 29.0251 28.8217 28.8906 28.7469 28.7823C28.4946 28.4152 27.9976 28.2246 27.9009 27.767C27.8746 27.6418 27.9051 27.5447 27.8801 27.4494C27.8384 27.2925 27.7326 27.1281 27.626 27.0057C27.5452 26.9114 27.3803 26.8479 27.2879 26.7087C27.2264 26.6181 27.213 26.4892 27.1607 26.3921C26.9504 25.9998 26.646 25.6532 26.3149 25.3768C26.1424 25.402 25.957 25.4132 25.8711 25.5253C25.957 25.8018 26.089 26.0334 26.2305 26.265C26.3597 26.4761 26.5434 26.704 26.6321 26.9422C26.6652 27.03 26.6593 27.1458 26.6958 27.2383C26.8285 27.5736 27.2467 27.6764 27.3301 28.0631C27.3863 28.3218 27.3177 28.5011 27.3936 28.7608C27.4663 29.0092 27.8335 29.1559 27.986 29.395C28.1096 29.5902 28.1108 29.8657 28.1973 30.0507C28.3239 30.3215 28.6779 30.4392 28.9375 30.6214C29.1703 30.7858 29.337 31.0379 29.5292 31.2136C29.6424 31.3163 29.7979 31.335 29.8255 31.4471C29.8614 31.59 29.7653 31.6376 29.7406 31.7637C29.903 31.9328 30.0611 32.2447 30.3329 32.2709C30.4446 32.2821 30.5857 32.1691 30.7559 32.1438C30.842 32.1317 30.938 32.1579 31.0095 32.1438C31.1222 32.1233 31.2204 32.0234 31.3486 31.9963C31.5645 31.9496 31.8149 31.9682 32.0883 31.9328C32.3469 31.8991 32.5247 31.6806 32.7228 31.7422C32.9402 31.9813 32.7843 32.2522 32.7228 32.4829C32.7013 32.5641 32.7013 32.6473 32.6812 32.7155C32.5668 33.0919 32.2679 33.3712 32.1306 33.7093C32.0883 33.813 32.0957 33.94 32.0467 34.0474C31.8892 34.3865 31.5607 34.7208 31.3059 34.9992C31.1622 35.1552 31.0357 35.2971 30.8831 35.4223C30.7315 35.5465 30.546 35.6147 30.3751 35.7389C30.0366 35.9874 29.684 36.3423 29.4448 36.6702C29.3524 36.7972 29.3082 36.9439 29.212 37.0513C29.0742 37.2044 28.8612 37.2801 28.7469 37.4314C28.6566 37.551 28.5968 37.7667 28.4932 37.9816C28.3769 38.2235 28.1337 38.3869 28.176 38.7213C28.1918 38.8493 28.3068 38.9287 28.3454 39.0594C28.411 39.2855 28.3607 39.4751 28.3239 39.7151C28.4435 40.0047 28.5295 40.3279 28.7469 40.5184C28.7731 40.9471 28.7116 41.3618 28.7469 41.7242C28.7692 41.9549 28.8591 42.1249 28.7682 42.337C28.6882 42.5247 28.3811 42.8544 28.1973 42.9712C27.9976 43.1001 27.6921 43.1337 27.478 43.2897C27.3292 43.3971 27.2057 43.5867 27.0549 43.7128C26.8057 43.9211 26.464 44.1154 26.4419 44.3255C26.4292 44.4469 26.5376 44.6309 26.5685 44.7486C26.6512 45.0606 26.7314 45.5099 26.59 45.848C26.4366 46.2141 25.6612 46.1376 25.5748 46.5242C25.5484 46.6419 25.6265 46.7363 25.617 46.8633C25.6094 46.9707 25.4679 47.3602 25.4054 47.476C25.312 47.6516 25.0994 47.7301 24.9616 47.8786C24.7886 48.0663 24.701 48.3372 24.5172 48.5333C24.2679 48.8014 23.931 49.0844 23.608 49.3161C23.3269 49.5187 22.8228 49.7289 22.3819 49.7607C22.125 49.7784 21.8494 49.6999 21.5781 49.7392C21.4788 49.7532 21.3709 49.8447 21.2395 49.8662C21.1632 49.8784 21.0851 49.8531 21.0071 49.8662C20.8742 49.8886 20.7497 49.9942 20.6264 49.9932C20.3524 49.9904 20.0005 49.6635 19.992 49.3376C19.9888 49.2124 20.0994 49.0938 20.0977 48.9779C20.0955 48.8425 19.93 48.6735 19.8013 48.4278C19.6779 48.1915 19.6293 47.9244 19.5055 47.731C19.3741 47.5246 19.2005 47.4274 19.1039 47.2649C18.9089 46.9399 18.8946 46.5551 18.8289 46.1656C18.8075 46.0385 18.7204 45.9003 18.7018 45.7425C18.6788 45.5482 18.7253 45.3324 18.6809 45.1717C18.6467 45.0475 18.5095 44.9214 18.4268 44.7692C18.2777 44.4955 18.1731 44.1368 18.0464 43.9239C17.9274 43.724 17.6871 43.5157 17.6656 43.2897C17.6513 43.1356 17.685 42.8488 17.7079 42.6975C17.7308 42.549 17.8409 42.4313 17.8772 42.2744C17.9012 42.1707 17.8724 42.0511 17.898 41.9363C18.0059 41.4524 18.5389 41.2759 18.4694 40.6884C18.4396 40.439 18.2632 40.3157 18.2366 40.0327C18.2244 39.9001 18.3028 39.7833 18.3001 39.6516C18.2965 39.4732 18.1454 39.2079 18.0674 39.0379C17.8532 38.5719 17.7219 38.145 17.4121 37.791C17.2434 37.5977 17.0222 37.4613 16.8833 37.2829C16.7696 37.1381 16.6314 36.8663 16.6291 36.7542C16.627 36.6337 16.7221 36.5581 16.7563 36.4376C16.8006 36.2816 16.8038 35.9855 16.862 35.7389C16.8887 35.6259 17.0111 35.3523 16.9891 35.1682C16.9677 34.9917 16.7044 34.6527 16.4812 34.5976C16.1859 34.5247 15.8821 34.6919 15.5088 34.6611C15.1873 34.4574 15.2113 33.9251 14.7473 33.8569ZM19.7805 13.1745C19.8051 13.5295 19.2385 13.4847 19.1669 13.7882C19.1349 13.9255 19.2331 14.1086 19.2097 14.2319C19.1664 14.4542 18.9517 14.3897 18.6809 14.5074C18.5426 14.5672 18.4086 14.7867 18.258 14.8026C18.1187 14.8175 18.0336 14.7213 17.9407 14.74C17.8019 14.7661 17.8483 14.9361 17.6444 14.9726C17.482 15.0006 17.198 14.8269 17.1792 15.0361C17.1669 15.1696 17.4345 15.2425 17.6022 15.2257C17.7351 15.2126 17.8324 15.122 17.9615 15.1201C18.212 15.1183 18.3749 15.306 18.5325 15.3107C18.8956 15.321 19.2518 14.9754 19.6326 15.0146C19.8046 15.0323 19.9066 15.1538 20.0341 15.1416C20.2382 15.122 20.4117 14.8866 20.5628 14.8026C20.4987 14.4467 20.5687 13.9769 20.9014 13.9573C21.13 13.9433 21.4729 14.3477 21.5144 13.9573C21.5326 13.7873 21.3341 13.6369 21.1973 13.6397C21.0756 13.6425 20.9159 13.8807 20.8165 13.6827C20.8172 13.4884 21.0345 13.5398 21.1552 13.4921C21.2449 13.4557 21.3084 13.3585 21.4089 13.3221C21.9118 13.1456 22.6093 13.4959 22.8046 13.069C22.3583 12.6879 21.5984 13.2073 21.0916 13.1745C20.8754 13.1605 20.5901 12.9999 20.5207 12.7935C20.4987 12.729 20.517 12.6412 20.4993 12.5189C20.4802 12.3844 20.4101 12.2424 20.415 12.1593C20.4363 11.7772 21.3874 11.7053 21.3874 11.229C21.2059 11.0552 20.6734 11.0842 20.4993 11.271C20.4369 11.3382 20.44 11.4746 20.3515 11.6101C20.1617 11.8986 19.5492 11.9332 19.3575 12.2863C19.3149 12.3647 19.2406 12.5796 19.2726 12.7094C19.3229 12.9093 19.7661 12.9644 19.7805 13.1745Z" fill="#8CC63F"/>
<path d="M27.8373 10.0026C27.7758 9.77375 28.2095 9.81112 28.1337 10.0241C28.0658 10.0876 27.8806 10.082 27.8373 10.0026Z" fill="#8CC63F"/>
<path d="M25.2366 22.6495C25.2463 22.4748 25.6446 22.4104 25.7225 22.5645C25.6964 22.7345 25.3184 22.8513 25.2366 22.6495Z" fill="#8CC63F"/>
<path d="M17.9829 21.5071C18.2034 21.3287 18.6942 21.4492 18.998 21.4436C18.9408 21.6052 18.9324 21.8153 18.8074 21.9087C18.4607 21.8461 18.1378 21.7611 17.9829 21.5071Z" fill="#8CC63F"/>
<path d="M16.4391 20.3862C16.7296 20.0827 17.0346 20.2433 16.9257 20.8299C16.8562 21.0055 16.5539 21.239 16.4177 20.9784C16.4642 20.7738 16.4445 20.6225 16.4391 20.3862Z" fill="#8CC63F"/>
<path d="M16.8621 19.71C16.8861 19.8884 16.8114 19.9687 16.7141 20.0266C16.4354 19.978 16.6473 19.4774 16.8621 19.71Z" fill="#8CC63F"/>
<path d="M12.7594 15.4162C12.784 15.2957 12.6894 15.1454 12.5687 15.0781C12.4994 15.0389 12.3931 15.0566 12.3151 15.0146C12.109 14.9006 12.0342 14.6653 11.9136 14.613C11.929 14.3813 11.85 14.2132 11.9136 14.0628C11.952 13.9713 12.2296 13.7135 12.3787 13.6612C12.5635 13.5958 12.7567 13.6537 12.8652 13.5136C12.9137 13.5061 12.9463 13.5164 12.9709 13.5342C12.9699 13.6677 12.8577 13.6892 12.8438 13.8088C12.8699 14.0012 13.2086 13.8807 13.2454 14.0628C13.2133 14.2599 13.0355 14.2991 13.034 14.443C13.0334 14.5691 13.2903 14.8073 13.4148 14.9726C13.5076 15.0949 13.6699 15.1855 13.7532 15.3107C13.8259 15.42 13.8419 15.5507 13.9011 15.6068C14.0122 15.7114 14.2632 15.7291 14.282 15.8814C14.3065 16.0831 14.031 16.1635 14.0704 16.3886C13.7801 16.6174 13.2956 16.4988 12.8225 16.5586C12.6083 16.5856 12.3723 16.7986 12.1459 16.6221C12.0935 16.4801 12.3338 16.4605 12.3573 16.326C12.3408 16.2008 12.1827 16.2186 12.1459 16.114C12.2072 15.9496 12.399 15.9159 12.3787 15.6703C12.4967 15.5414 12.7237 15.59 12.7594 15.4162Z" fill="#8CC63F"/>
<path d="M11.1735 14.909C11.456 14.7363 11.9494 14.868 11.9768 15.0781C11.9975 15.2369 11.8267 15.2593 11.7652 15.4377C11.7102 15.5993 11.776 15.7917 11.7022 15.9029C11.6376 16 11.4619 15.9935 11.3423 16.0299C11.0763 16.1093 10.5626 16.4213 10.3484 16.0719C10.3794 15.8842 10.561 15.8468 10.6235 15.6918C10.6271 15.5694 10.4969 15.505 10.5177 15.3742C10.5433 15.2145 10.6635 15.2696 10.8349 15.2052C10.9594 15.1575 11.0128 15.0071 11.1735 14.909Z" fill="#8CC63F"/>
<path d="M-10.3766 32.7155C-10.2094 32.6885 -10.2581 32.3046 -10.461 32.398C-10.6142 32.469 -10.5347 32.7408 -10.3766 32.7155ZM-16.7209 11.102C-16.5858 11.0787 -16.447 11.1403 -16.3611 11.0179C-16.462 10.5519 -17.106 10.8367 -17.482 10.8694C-17.561 11.0021 -17.6667 11.1076 -17.6935 11.2926C-17.4019 11.3663 -17.0499 11.1581 -16.7209 11.102ZM-16.6152 12.6254C-16.4951 12.5834 -16.3285 12.6049 -16.2981 12.4769C-16.3968 12.3975 -16.4982 12.291 -16.6152 12.2864C-16.7685 12.2808 -16.8422 12.4171 -16.996 12.4984C-17.1749 12.5927 -17.4227 12.6151 -17.4399 12.773C-17.1124 12.8375 -16.8176 12.6945 -16.6152 12.6254ZM-12.8294 10.4473C-12.759 10.4015 -12.6511 10.3398 -12.7028 10.2352C-12.9362 10.1259 -13.331 10.2091 -13.6754 10.1717C-13.8707 9.89525 -14.1977 9.85322 -14.2254 10.2987C-13.8319 10.6182 -13.2359 10.1502 -12.8294 10.4473ZM-4.79315 8.8183C-4.8205 8.78934 -4.89309 8.78934 -4.92037 8.8183V8.90328C-4.83059 8.92198 -4.81415 8.86779 -4.79315 8.8183ZM-2.3612 10.8909C-2.25714 10.9031 -2.1984 10.8704 -2.21324 10.7639C-2.3073 10.6976 -2.44452 10.7844 -2.3612 10.8909ZM-24.5878 14.2114C-24.583 14.1713 -24.6119 14.1638 -24.6086 14.1264C-24.6732 14.1255 -24.748 14.1143 -24.7358 14.1899C-24.7053 14.2506 -24.6235 14.2618 -24.5878 14.2114ZM-15.6422 31.9123C-15.6315 31.8805 -15.6112 31.8581 -15.6001 31.8273C-15.6642 31.6162 -15.8669 31.9039 -15.6422 31.9123ZM-14.5005 16.0505C-14.2644 16.0421 -14.1047 15.3453 -14.5005 15.4378C-14.7654 15.4994 -14.8294 16.0627 -14.5005 16.0505ZM-11.857 18.4192C-11.9446 18.3165 -12.4188 18.4314 -12.555 18.5248C-12.6485 18.5902 -12.712 18.7471 -12.8086 18.8638C-12.9085 18.9834 -13.0201 19.0768 -13.1045 19.1814C-13.1808 19.2748 -13.6092 19.8931 -13.2738 19.9632C-13.1307 19.9931 -12.8365 19.6961 -12.8086 19.583C-12.7131 19.1945 -12.5384 18.918 -12.2378 18.7368C-12.0637 18.6313 -11.8853 18.6443 -11.857 18.4192ZM-11.5606 18.0811C-11.1392 17.9018 -11.6438 17.3488 -11.8356 17.2984C-12.1785 17.2087 -12.666 17.5496 -13.0623 17.658C-13.2856 17.7187 -13.498 17.7243 -13.5488 17.912C-13.3485 18.2436 -12.9528 17.8392 -12.6607 17.8906C-12.5127 17.9167 -12.4263 18.1194 -12.2799 18.1446C-12.1801 18.1614 -11.6007 18.0979 -11.5606 18.0811ZM-10.6303 19.6886C-10.931 19.5812 -11.2086 19.7605 -11.4549 19.7941C-11.6017 19.8137 -11.8692 19.7642 -11.8356 19.9837C-11.8084 20.164 -11.5313 20.0986 -11.3704 20.0472C-11.0361 19.9417 -10.8252 19.8511 -10.6303 19.6886ZM-10.3344 18.8424C-10.1683 18.7116 -10.242 18.4445 -10.4187 18.3977C-10.4881 18.38 -10.5805 18.4491 -10.6938 18.4407C-10.8134 18.4314 -10.933 18.3221 -11.0319 18.3137C-11.2006 18.2987 -11.372 18.3828 -11.434 18.4613C-11.4405 18.5883 -11.341 18.6088 -11.3491 18.7368C-11.5547 18.8834 -11.4457 19.3748 -11.2433 19.3925C-11.0287 19.4112 -10.9176 18.8489 -10.6303 18.8003C-10.526 18.7816 -10.4727 18.8592 -10.3344 18.8424ZM-9.23428 19.2019C-9.32247 19.116 -9.60967 19.1403 -9.80564 19.1599C-9.94397 19.1739 -10.1084 19.2029 -10.1228 19.3075C-9.90286 19.4084 -9.30321 19.4812 -9.23428 19.2019ZM-23.9955 17.2778C-23.8956 17.1751 -24.0378 16.9584 -24.1861 17.0453C-24.2006 17.1219 -24.1589 17.3096 -23.9955 17.2778ZM-1.13504 17.8271C-1.23377 17.8028 -1.36838 17.8074 -1.49447 17.785C-1.60234 17.7654 -1.7305 17.7336 -1.83241 17.7215C-2.09365 17.6907 -2.3761 17.7663 -2.53049 17.616C-2.27895 17.2816 -1.94467 16.9519 -1.62102 16.6642C-1.52491 16.5783 -1.31821 16.5194 -1.36735 16.3466C-1.54724 16.1887 -1.76832 16.3569 -1.93821 16.4521C-2.11654 16.553 -2.32912 16.6978 -2.53049 16.7277C-2.88028 16.7791 -3.34431 16.625 -3.63003 16.8118C-3.66955 16.9715 -3.30481 16.9098 -3.35552 17.1508C-3.49544 17.1732 -3.62779 17.1844 -3.73586 17.0873C-3.83403 16.9986 -3.77798 16.865 -3.84151 16.8118C-3.94994 16.7221 -4.35737 16.6978 -4.53951 16.7277C-4.76172 16.7641 -4.95814 16.8968 -4.98383 17.0873C-4.71678 17.2125 -4.27676 16.9584 -4.1801 17.2778C-4.32637 17.5412 -4.67093 17.686 -4.62442 18.0391C-4.60619 18.1745 -4.44441 18.3567 -4.32805 18.3772C-4.2111 18.3977 -4.14535 18.2819 -4.03214 18.2922C-3.91257 18.3034 -3.93977 18.4407 -3.79937 18.4192C-3.59585 18.3324 -3.4832 18.0466 -3.2498 18.0596C-2.96995 18.3996 -3.50246 18.5649 -3.79937 18.6733C-4.13798 18.7956 -4.5779 18.861 -4.83588 18.9694C-4.97094 19.0264 -5.4826 19.5205 -5.55472 19.1384C-5.60645 18.8629 -5.30159 18.9423 -5.23741 18.7153C-5.56489 18.6518 -5.86985 18.8563 -6.16782 18.9694C-6.59289 19.13 -7.3132 19.2318 -7.41576 19.7101C-7.43614 19.8053 -7.3742 19.9837 -7.4367 20.0472C-7.4874 20.0986 -7.79068 20.108 -7.92323 20.1537C-8.12714 20.2238 -8.30515 20.3732 -8.43106 20.4068C-8.52616 20.433 -8.66653 20.4255 -8.72697 20.4498C-8.89509 20.5152 -8.95712 20.7422 -9.1499 20.8935C-9.22892 20.9551 -9.40413 21 -9.4671 21.0625C-9.57647 21.1718 -9.59095 21.4446 -9.78421 21.4857C-9.90703 21.4969 -10.007 21.3932 -10.1228 21.4642C-10.1367 21.7341 -10.0278 22.1012 -10.1437 22.3739C-10.3941 22.5776 -10.6692 22.7223 -10.9896 22.9026C-11.1669 23.0025 -11.3255 23.0278 -11.5397 23.1352C-11.6914 23.2108 -11.8302 23.392 -12.0049 23.4948C-12.4085 23.7329 -12.8961 24.0141 -12.893 24.6156C-12.8924 24.7464 -12.8251 24.8865 -12.8085 25.0387C-12.7984 25.1284 -12.8192 25.2162 -12.8085 25.3143C-12.7835 25.5347 -12.6232 25.8168 -12.8085 25.969C-13.0933 25.8523 -13.4553 25.813 -13.6546 25.6094C-13.7089 25.4011 -13.5445 25.2293 -13.5696 25.0387C-13.5898 24.8865 -13.8046 24.6147 -13.9295 24.5941C-14.0582 24.5745 -14.1768 24.7109 -14.3098 24.7006C-14.4677 24.6875 -14.6147 24.4699 -14.8177 24.4466C-15.1151 24.412 -15.3341 24.5147 -15.6636 24.468C-15.9825 24.638 -16.0758 24.9416 -16.4667 24.9117C-16.6045 24.9014 -16.7305 24.7968 -16.8897 24.7641C-17.0622 24.7277 -17.3239 24.667 -17.5033 24.6791C-17.8632 24.7034 -18.1244 24.9621 -18.4335 25.1228C-18.7065 25.2648 -19.0927 25.4422 -19.1738 25.7364C-19.218 25.8952 -19.1807 26.1185 -19.2373 26.2651C-19.2746 26.3623 -19.3565 26.4482 -19.4066 26.5397C-19.6438 26.9731 -19.8402 27.5457 -19.6602 28.1687C-19.6336 28.2611 -19.398 28.7823 -19.301 28.8879C-19.1919 29.0046 -18.871 29.1802 -18.6878 29.183C-18.5329 29.1868 -18.3514 29.1046 -18.2013 29.0775C-18.0272 29.0467 -17.8092 29.0439 -17.6512 28.9934C-17.1941 28.8468 -17.2843 28.2285 -16.8266 28.0202C-16.627 27.9305 -16.3958 27.9118 -16.0443 27.8941C-15.9327 27.9875 -15.8803 28.1519 -15.8959 28.2957C-15.9075 28.4031 -16.0101 28.5012 -16.0651 28.6553C-16.1132 28.7898 -16.1234 28.9477 -16.1708 29.0569C-16.2339 29.1998 -16.3744 29.3035 -16.4245 29.438C-16.4576 29.5249 -16.4395 29.6332 -16.4667 29.7117C-16.5153 29.8518 -16.7017 29.9499 -16.6152 30.0928C-16.1624 30.273 -15.6144 30.0414 -15.2193 30.1143C-15.0526 30.1451 -14.7087 30.344 -14.7119 30.6009C-14.714 30.7933 -14.8604 30.9194 -14.8812 31.1296C-14.9068 31.3948 -15.0174 31.7189 -15.0291 31.9328C-15.0478 32.2831 -14.5143 32.8893 -14.141 32.8846C-13.7389 32.879 -13.5044 32.4839 -13.0201 32.6941C-12.8593 32.7632 -12.6895 33.0247 -12.5122 33.0116C-12.3659 33.0004 -12.1448 32.7445 -12.047 32.5671C-11.928 32.3513 -11.9194 32.1692 -11.709 32.0599C-11.482 31.9422 -11.3015 31.9991 -11.0111 31.8908C-10.8812 31.8422 -10.7685 31.76 -10.6515 31.6788C-10.549 31.6087 -10.4412 31.4238 -10.313 31.5517C-10.1442 31.7208 -10.5197 31.8161 -10.3766 31.9963C-10.0834 32.1514 -9.93328 31.7077 -9.72068 31.7003C-9.65296 31.6984 -9.41844 31.832 -9.29777 31.9123C-9.13271 32.0206 -9.07667 32.1729 -8.89621 32.2074C-8.78029 32.2308 -8.59388 32.1635 -8.43106 32.186C-8.2153 32.2177 -8.08659 32.4026 -7.92323 32.398C-7.7239 32.3924 -7.62836 32.1757 -7.458 32.1439C-7.08476 32.0757 -6.94595 32.186 -6.78137 32.4195C-6.5971 32.4512 -6.59073 32.2065 -6.42205 32.2924C-6.51443 32.4764 -6.39049 32.5614 -6.31622 32.7155C-6.26813 32.8146 -6.27625 32.8846 -6.23132 32.9276C-6.13036 33.0229 -5.93542 33.0229 -5.78756 33.1172C-5.63159 33.2153 -5.54351 33.3983 -5.36462 33.6038C-5.18036 33.814 -4.87062 34.0316 -4.62442 34.0475C-4.39211 34.0624 -4.20307 33.9821 -4.01076 34.0054C-3.57343 34.0596 -3.30163 34.2773 -2.99564 34.5136C-2.82471 34.6443 -2.67041 34.7359 -2.6154 34.8937C-2.57691 35.003 -2.59559 35.1506 -2.55178 35.2739C-2.45831 35.5373 -2.0744 35.6643 -2.2132 36.1201C-2.14978 36.2537 -2.00706 36.3013 -1.85388 36.3947C-1.73106 36.4704 -1.62738 36.6273 -1.49447 36.6488C-1.40853 36.6628 -1.31494 36.6226 -1.24078 36.6273C-1.00036 36.6441 -0.835417 36.7375 -0.62712 36.8178C-0.497843 36.8673 -0.332341 36.8879 -0.246305 36.9458C-0.138996 37.0177 -0.125165 37.2615 0.00727378 37.3259C0.0937578 37.3671 0.286096 37.3091 0.430213 37.3259C0.657273 37.3521 0.965325 37.4913 1.17033 37.495C1.29485 37.4978 1.39797 37.4436 1.50846 37.453C2.02647 37.4922 2.32013 38.1124 2.82002 38.2983C2.97499 38.3571 3.22055 38.316 3.32738 38.3618C3.51486 38.4431 3.6728 39.0165 3.68681 39.2706C3.72949 40.0393 3.13937 40.2859 2.79873 40.794C2.72764 40.9005 2.68815 41.0686 2.58718 41.2171C2.3842 41.5151 2.15835 41.5777 2.18563 42.1259C2.19309 42.2773 2.26998 42.4239 2.26998 42.5911C2.26998 42.7966 2.25232 43.0637 2.20645 43.2477C2.17171 43.3869 2.05579 43.5009 2.03721 43.6279C2.01844 43.7568 2.07514 43.8567 2.05859 43.9669C2.0403 44.0884 1.9186 44.2602 1.82566 44.4311C1.63025 44.7926 1.58748 45.2167 1.19117 45.3614C0.958396 45.4474 0.642791 45.3997 0.387979 45.4885C0.285064 45.5249 0.154666 45.6202 0.0281007 45.679C-0.339804 45.8499 -0.864268 46.0816 -0.965704 46.4608C-1.05602 46.7998 -0.839699 47.0698 -0.902197 47.4555C-0.967856 47.5704 -1.05649 47.6853 -1.15587 47.8151C-1.24721 47.9347 -1.29261 48.0757 -1.38864 48.1953C-1.51577 48.355 -1.7134 48.4251 -1.79017 48.6399C-1.81651 48.7128 -1.7999 48.7987 -1.83241 48.9145C-1.84474 48.9575 -1.92272 49.0238 -1.95962 49.1051C-1.99369 49.1798 -1.99213 49.276 -2.02313 49.3376C-2.1197 49.5328 -2.40711 49.9765 -2.6154 50.0363C-3.05439 50.1586 -3.51739 49.8495 -3.82078 49.9083C-3.77686 50.1203 -3.62313 50.0989 -3.52432 50.2464C-3.46659 50.3342 -3.43521 50.4501 -3.35552 50.5425C-3.26054 50.6527 -3.17656 50.6938 -3.16488 50.8181C-3.14078 51.0786 -3.34375 51.3402 -3.48208 51.4317C-3.60865 51.5139 -3.87148 51.5625 -4.09574 51.5998C-4.25219 51.626 -4.65598 51.6279 -4.73014 51.7278C-4.83915 51.8744 -4.67241 52.2378 -4.75096 52.3835C-4.909 52.6927 -5.33418 52.3742 -5.55472 52.4676C-5.57339 52.6273 -5.51464 52.7945 -5.38547 52.8692C-5.25245 52.9467 -5.05061 52.8459 -4.96244 52.9962C-5.00577 53.2064 -5.23209 53.2335 -5.27973 53.4408C-5.27375 53.6426 -5.21183 53.6949 -5.23741 53.821C-5.29253 54.0928 -5.715 54.0816 -5.70267 54.3711C-5.68444 54.8036 -4.87175 54.6261 -4.85679 55.0483C-4.84821 55.3033 -5.08957 55.3061 -5.1739 55.5545C-5.2193 55.6881 -5.14774 55.7189 -5.1739 55.8301C-5.20912 55.9795 -5.38547 56.0234 -5.38547 56.1888C-5.38603 56.3914 -5.08957 56.6147 -4.94171 56.7809C-4.79692 56.9453 -4.61115 57.1788 -4.41294 57.289C-4.11592 57.4534 -3.67374 57.4161 -3.54561 57.7122C-3.58623 57.8906 -3.75772 57.9373 -3.92641 57.9868H-3.96862C-4.02578 57.9522 -4.22865 57.9522 -4.28581 57.9868H-4.58171C-4.86464 57.856 -5.20818 57.7719 -5.55472 57.6487C-5.67969 57.6047 -5.82063 57.4983 -5.95634 57.4376C-6.05824 57.3909 -6.17313 57.3731 -6.25271 57.3311C-6.43485 57.2358 -6.63987 56.9257 -6.8236 56.8033C-6.93521 56.7277 -7.11033 56.6885 -7.18301 56.6119C-7.25241 56.5399 -7.29034 56.384 -7.35225 56.2952C-7.42063 56.1981 -7.54616 56.1271 -7.62733 56.0206C-7.80303 55.7871 -8.02729 55.4733 -8.02886 55.3014C-8.03054 55.1314 -7.86757 55.0165 -7.92323 54.8578C-7.97488 54.7074 -8.29966 54.7401 -8.34617 54.5607C-8.37446 54.4533 -8.25267 54.2712 -8.26182 54.118C-8.26668 54.0283 -8.43322 53.9069 -8.36736 53.7789C-8.29161 53.6304 -8.14852 53.7911 -8.02886 53.7154C-8.11853 53.41 -8.02196 52.9187 -8.32523 52.8272C-8.48123 52.9579 -8.16616 53.254 -8.43106 53.3343C-8.68679 53.2213 -8.6275 52.8841 -8.68475 52.6366C-8.72201 52.4732 -8.80327 52.3265 -8.81121 52.15C-8.81551 52.0575 -8.77498 51.951 -8.79047 51.8548C-8.83531 51.57 -9.1525 51.3364 -9.1712 51.0506C-9.17978 50.9133 -9.08676 50.7966 -9.06555 50.649C-9.05051 50.5491 -9.07938 50.437 -9.06555 50.3314C-9.04679 50.1969 -8.97252 50.0736 -8.95972 49.9513C-8.9347 49.7187 -8.96028 49.3208 -9.00186 49.1256C-9.05425 48.8818 -9.24807 48.6744 -9.27692 48.4073C-9.28712 48.3111 -9.24488 48.1505 -9.25562 48.0272C-9.26571 47.9123 -9.32877 47.7983 -9.33998 47.6666C-9.35062 47.5461 -9.30998 47.4313 -9.29777 47.2865C-9.27535 47.0212 -9.34959 46.7251 -9.33998 46.4608C-9.33735 46.3833 -9.29665 46.3263 -9.29777 46.2497C-9.30046 46.0321 -9.37313 45.8116 -9.38266 45.594C-9.3992 45.1924 -9.33829 44.9084 -9.40348 44.5367C-9.45271 44.2565 -9.51353 43.8259 -9.61496 43.6494C-9.72817 43.4523 -10.173 43.1179 -10.3973 42.9927C-10.5453 42.9105 -10.7226 42.8825 -10.8838 42.8031C-11.2283 42.6341 -11.896 42.2773 -12.047 41.9363C-12.0908 41.8373 -12.0849 41.7075 -12.1319 41.5973C-12.2239 41.3806 -12.4177 41.1938 -12.5549 40.9846C-12.816 40.5848 -13.027 40.0851 -13.2951 39.6732C-13.4308 39.4639 -13.5483 39.2267 -13.6967 39.0595C-13.7838 38.9614 -14.0625 38.8699 -14.0983 38.7214C-14.1458 38.5262 -14.2905 38.2572 -14.2676 38.1087C-14.2372 37.906 -13.8441 37.7425 -13.8446 37.5585C-13.8451 37.4016 -14.0545 37.3101 -14.0983 37.1784C-14.2051 36.8542 -14.0357 36.6646 -13.9081 36.3947C-13.8659 36.3069 -13.8248 36.1649 -13.781 36.0996C-13.7037 35.9828 -13.5461 35.9501 -13.443 35.824C-13.3854 35.754 -13.349 35.6064 -13.2737 35.5074C-13.113 35.2935 -12.8534 35.2132 -12.7871 35.0207C-12.7333 34.8638 -12.7018 34.0783 -12.7664 33.8149C-12.8033 33.6636 -12.9447 33.5366 -12.9987 33.3918C-13.0942 33.1368 -13.1166 32.8585 -13.3795 32.8631C-13.5417 32.8669 -13.656 33.0462 -13.7602 33.1592C-13.7853 33.3096 -13.772 33.473 -13.9295 33.5188C-14.1699 33.5898 -14.2622 33.2657 -14.5426 33.1807C-14.6541 33.1471 -14.832 33.1489 -14.9021 33.1172C-15.1065 33.0257 -15.1727 32.7258 -15.3885 32.6091C-15.569 32.5129 -15.7234 32.5465 -15.8328 32.398C-15.8782 32.2962 -15.8424 32.1112 -15.8537 31.9749C-16.0854 31.8394 -16.282 31.3332 -16.5516 31.2136C-16.7305 31.1342 -17.0045 31.1417 -17.2283 31.066C-17.3334 31.0306 -17.4146 30.9839 -17.5246 30.9605C-17.6604 30.9297 -17.7997 30.9278 -17.9049 30.8755C-18.3236 30.6672 -18.5495 29.9938 -19.068 30.0087C-19.2891 30.0143 -19.5022 30.2207 -19.7025 30.2198C-19.9017 30.2189 -20.2354 30.061 -20.4852 29.9452C-20.7449 29.8247 -21.0321 29.7584 -21.2463 29.6491C-21.4193 29.5604 -21.5394 29.3988 -21.6906 29.3315C-21.8064 29.2802 -21.9758 29.2708 -22.0709 29.226C-22.2059 29.1625 -22.3469 29.0252 -22.5152 28.9084C-22.6748 28.7982 -22.8473 28.6292 -22.8538 28.4862C-22.8607 28.32 -22.7015 28.1799 -22.6844 28.0202C-22.63 27.5167 -23.001 27.1543 -23.2345 26.8573C-23.4075 26.6359 -23.6104 26.4482 -23.784 26.2446C-23.7743 26.1082 -23.7743 26.0839 -23.784 25.9485C-23.9154 25.8205 -24.0259 25.6318 -24.1648 25.4404C-24.2903 25.2676 -24.5349 25.0845 -24.5663 24.8912C-24.6054 24.653 -24.4761 24.4447 -24.5663 24.214C-24.717 23.831 -25.2482 24.0038 -25.1801 24.5101C-25.1607 24.6492 -24.9642 24.837 -24.905 24.9752C-24.8441 25.1163 -24.8559 25.2919 -24.7993 25.4618C-24.7447 25.6244 -24.5808 25.7654 -24.5242 25.9485C-24.4345 26.238 -24.4371 26.55 -24.3549 26.7303C-24.2823 26.8919 -24.0147 27.0432 -24.1648 27.2384C-24.365 27.2795 -24.442 27.0796 -24.5663 26.9628C-24.6358 26.8984 -24.8872 26.7751 -24.9257 26.6247C-24.9579 26.5005 -24.8467 26.3324 -24.8836 26.1801C-24.9563 25.8822 -25.5586 25.8747 -25.5608 25.5674C-25.5618 25.375 -25.3087 25.3516 -25.3065 25.1658C-25.3048 24.9612 -25.5848 24.7893 -25.6451 24.6156C-25.7001 24.4568 -25.7092 24.2046 -25.7295 23.9814C-25.7493 23.7722 -25.7236 23.5293 -25.7722 23.3678C-25.8155 23.223 -26.034 23.0231 -26.1738 22.9446C-26.3592 22.8419 -26.506 22.8848 -26.5967 22.7335C-26.6758 22.6018 -26.7276 22.3263 -26.7447 22.1843C-26.7752 21.9293 -26.7517 21.651 -26.7661 21.3801C-26.78 21.1083 -26.8077 20.8477 -26.7661 20.5554C-26.6614 20.3508 -26.4707 20.2499 -26.364 20.0472C-26.2897 19.9071 -26.2791 19.7325 -26.1952 19.583C-26.0403 19.3066 -25.7028 19.0516 -25.4759 18.7788C-25.2313 18.4855 -25.0059 18.2044 -24.8628 17.8691C-24.8115 17.7505 -24.6737 17.4861 -24.6935 17.3404C-24.7213 17.1368 -25.1047 16.9696 -25.0743 16.7277C-25.055 16.5773 -24.8415 16.5801 -24.7779 16.4316C-24.7453 16.355 -24.7158 16.1421 -24.7144 16.0505C-24.7111 15.8469 -24.819 15.6339 -24.7779 15.4163C-24.7432 15.2304 -24.4665 15.1557 -24.6085 14.9512C-24.7496 14.7494 -25.0027 15.0604 -25.1587 14.9297C-25.3018 14.8101 -25.1298 14.6644 -25.1165 14.443C-25.1111 14.3553 -25.1677 14.2553 -25.1587 14.1899C-25.1458 14.0956 -24.9616 13.9359 -25.0106 13.8723C-25.125 13.7276 -25.2532 13.3605 -25.4973 13.2382C-25.8075 13.0822 -26.1434 13.1877 -26.5753 13.1111C-26.8403 13.0644 -26.9658 12.8169 -27.2098 12.8365C-27.3605 12.8487 -27.447 13.0205 -27.6541 13.1111C-27.8592 13.2008 -28.1273 13.17 -28.3308 13.2167C-28.5327 13.2634 -28.6298 13.4025 -28.8387 13.3857C-29.0128 13.3727 -29.0138 13.2157 -29.2188 13.1961C-29.299 13.1877 -29.4507 13.2456 -29.5783 13.2596C-29.9052 13.2942 -30.4953 13.3101 -30.8265 13.2382C-31.1291 13.1728 -31.316 13.0766 -31.651 12.9206C-31.9025 12.8047 -32.3692 12.6609 -32.349 12.4769C-32.3362 12.3583 -31.9068 12.2322 -31.7359 12.1808C-31.4602 12.0968 -31.2904 11.9613 -31.08 11.9482C-30.9989 11.9436 -30.8921 11.9977 -30.7842 11.9903C-30.6757 11.9828 -30.5423 11.8829 -30.4034 11.8632C-30.1081 11.8222 -29.6916 11.8782 -29.7269 11.5886C-29.9511 11.4112 -30.8659 11.7203 -30.89 11.3346C-30.9044 11.102 -30.5428 11.032 -30.2763 10.9759C-30.0339 10.9245 -29.6659 10.8377 -29.4517 10.8479C-29.2102 10.861 -28.8927 11.131 -28.7538 10.8274C-28.6865 10.6116 -28.8361 10.4304 -28.8809 10.2558C-28.7014 10.0082 -28.3709 10.0391 -28.1194 10.0026C-27.8321 9.96061 -27.5975 9.90926 -27.3156 9.79063C-27.0683 9.68695 -26.8057 9.61784 -26.5124 9.57953C-26.2251 9.54218 -25.9464 9.43382 -25.6873 9.41048C-25.4742 9.39087 -25.2788 9.40768 -25.0743 9.36845C-24.8932 9.33294 -24.7019 9.23207 -24.5028 9.24142C-24.3698 9.24702 -24.256 9.34415 -24.1226 9.36845C-23.9971 9.38993 -23.8534 9.36191 -23.7204 9.38899C-23.6185 9.41048 -23.5266 9.47959 -23.4245 9.49547C-23.2644 9.51882 -23.0925 9.47305 -22.9381 9.49547C-22.7961 9.51508 -22.6754 9.60381 -22.5365 9.62156C-22.2107 9.66359 -21.838 9.60475 -21.5213 9.66453C-21.4012 9.68695 -21.2927 9.74579 -21.1619 9.77007C-21.0379 9.79249 -20.9018 9.76727 -20.7811 9.79063C-20.6129 9.82425 -20.4724 9.98397 -20.2947 10.0026C-19.9673 10.0363 -19.6 9.86068 -19.2587 9.8336C-19.0114 9.81396 -18.7566 9.84293 -18.4972 9.79063C-18.2611 9.74299 -18.0325 9.65238 -17.8204 9.64306C-17.7052 9.63837 -17.6085 9.67854 -17.5033 9.66453C-17.3939 9.64958 -17.2625 9.51788 -17.1439 9.5375C-16.9863 9.56272 -17.0141 9.76166 -16.8475 9.8121C-16.6632 9.71683 -16.4796 9.81865 -16.2767 9.8121C-16.079 9.80558 -15.9023 9.71497 -15.6843 9.7486C-15.2994 9.8093 -14.7615 10.1857 -14.4582 9.98211C-14.3819 9.92979 -14.4 9.84107 -14.3311 9.70656C-14.2376 9.52443 -14.0534 9.31053 -14.0983 9.05087C-14.5223 9.05742 -14.9271 9.26477 -15.4099 9.28345C-15.8975 8.97802 -15.2795 8.78842 -14.9234 8.64923C-14.6297 8.53434 -14.3973 8.27841 -14.0346 8.22611C-13.7389 8.18316 -13.4136 8.2915 -13.0623 8.33165C-12.8572 8.35595 -12.6521 8.31766 -12.5335 8.35315C-12.3258 8.41574 -12.219 8.62121 -12.047 8.66979C-11.9728 8.69126 -11.851 8.6894 -11.7511 8.71276C-11.5611 8.75665 -11.3907 8.85659 -11.2011 8.71276C-11.0521 8.73984 -11.0346 8.89768 -10.8838 8.92384C-10.7434 8.84818 -10.635 8.65578 -10.4187 8.6072C-10.3247 8.58572 -10.2259 8.62307 -10.1228 8.6072C-9.95036 8.57918 -9.72068 8.34568 -9.61496 8.56425C-9.65821 8.71742 -9.88901 8.73984 -10.0171 8.86033C-10.1308 8.96773 -10.3061 9.21434 -10.2917 9.32548C-10.2665 9.52723 -9.96419 9.44971 -9.95355 9.70656C-9.99847 9.85413 -10.1704 9.78783 -10.313 9.85413C-10.4434 9.91486 -10.4919 10.04 -10.6302 10.0662C-11.0147 10.139 -11.3336 9.96902 -11.6662 9.98211C-11.6817 10.1259 -11.5018 10.21 -11.4126 10.2558C-11.1109 10.4146 -10.8651 10.3931 -10.4401 10.3828C-10.2222 10.3781 -9.97166 10.4482 -9.78421 10.3193C-9.66567 10.239 -9.67213 10.0596 -9.57282 9.96061C-9.45318 9.84107 -9.17763 9.71963 -9.00186 9.7486C-8.90583 9.76447 -8.77068 9.87935 -8.76909 9.96061C-8.76581 10.1521 -9.04089 10.0914 -9.04407 10.2987C-8.86521 10.4061 -8.39258 10.1811 -8.36736 10.0026C-8.34942 9.87189 -8.5212 9.79715 -8.51542 9.66453C-8.50522 9.44317 -8.20409 9.44689 -8.24034 9.21994C-8.38558 9.10597 -8.53727 9.24422 -8.68475 9.21994C-8.89247 9.18537 -9.07938 8.93693 -9.1712 8.77533C-9.07938 8.66232 -8.88707 8.73798 -8.74826 8.75479C-8.59285 8.53995 -8.30338 8.45589 -7.90221 8.41666C-7.75977 8.40265 -7.56961 8.34568 -7.5002 8.48019C-7.46602 8.68005 -7.79658 8.80054 -7.73307 9.03032C-7.44847 9.10131 -7.35497 8.71742 -7.1195 8.56425C-7.01582 8.497 -6.8674 8.45216 -6.71786 8.39518C-6.58757 8.34568 -6.44381 8.22331 -6.33715 8.22611C-6.22012 8.22986 -6.19938 8.32513 -6.08337 8.37462C-5.97922 8.4176 -5.84313 8.3438 -5.80839 8.48019C-6.05349 8.90422 -6.96725 8.66044 -7.20439 9.0929C-7.15145 9.38338 -7.3475 9.65987 -7.18301 9.85413C-7.0655 9.99332 -6.80062 9.89897 -6.73915 10.0447C-6.6565 10.2399 -6.99556 10.2399 -6.90793 10.4678C-6.68415 10.6014 -6.41765 10.3398 -6.2105 10.2352C-5.98837 10.1222 -5.70742 9.98958 -5.68182 9.7271C-5.79346 9.51322 -6.20994 9.67854 -6.27354 9.45249C-6.30819 9.33014 -6.14585 9.05462 -6.10476 9.00884C-5.88413 8.76131 -5.11403 8.40919 -4.56089 8.45869C-4.45562 8.46804 -4.34934 8.53248 -4.24369 8.54369C-3.87998 8.58106 -3.45061 8.38677 -3.16488 8.54369C-2.93531 8.40919 -2.65977 8.56145 -2.34042 8.52222C-2.09412 8.66698 -2.16202 8.97616 -1.79017 9.11438C-1.6893 9.15175 -1.56329 9.12467 -1.43085 9.15641C-1.3326 9.17977 -1.2263 9.29557 -1.11365 9.34695C-0.953464 9.41981 -0.830644 9.403 -0.796459 9.51602C-0.762744 9.62624 -0.912935 9.69816 -0.902197 9.8121C-0.810848 9.88776 -0.887245 10.0008 -0.838578 10.1082C-0.747319 10.3043 -0.517189 10.2894 -0.289188 10.3828C-0.128908 10.4491 0.212859 10.6499 0.197436 10.8059C0.187259 10.9105 -0.123572 11.0945 -0.225569 11.145C-0.297594 11.1795 -0.654292 11.3523 -0.775073 11.3346C-0.974762 11.3056 -1.05275 10.9012 -1.32511 10.9124C-1.44374 10.9171 -1.55527 10.988 -1.55798 11.145C-1.56228 11.4224 -1.24721 11.4336 -1.24078 11.6736C-1.23219 11.9604 -1.39779 11.9809 -1.64231 12.1593C-1.81754 12.0884 -1.96493 11.9884 -2.19238 11.9697C-2.32753 12.1304 -1.97027 12.1874 -2.08663 12.3919C-2.42634 12.4648 -2.68537 12.2957 -2.99564 12.2023C-3.09279 12.1724 -3.2327 12.1845 -3.31284 12.1388C-3.43297 12.0687 -3.46827 11.8632 -3.567 11.7577C-3.68132 11.6353 -3.90941 11.4607 -4.09574 11.4616C-4.35681 11.4625 -4.735 11.7876 -4.94171 11.4831C-4.79851 10.9983 -4.12031 11.3579 -3.67283 11.187C-3.50618 11.1235 -3.44893 10.947 -3.31284 10.8694C-3.03946 10.7134 -2.59502 10.692 -2.63623 10.3828C-2.65705 10.2278 -2.87441 10.2296 -2.99564 10.1502C-3.16125 10.0428 -3.28771 9.66173 -3.52432 9.64306C-3.64611 9.63371 -3.73371 9.73645 -3.8629 9.7486C-4.13629 9.77476 -4.44069 9.63837 -4.68746 9.7486C-4.80225 9.8149 -4.72482 9.91952 -4.81449 10.0447C-4.88818 10.1474 -5.06238 10.1764 -5.13169 10.2773C-5.21295 10.3968 -5.19632 10.5444 -5.30112 10.6369C-5.47467 10.791 -5.84192 10.8153 -6.06208 10.8909C-6.16033 10.9245 -6.28418 11.0394 -6.37928 11.0394C-6.55384 11.0376 -6.62866 10.804 -6.8236 10.8909C-6.84068 11.1169 -6.58439 11.2085 -6.42205 11.3131C-6.24628 11.4271 -6.06152 11.5391 -5.99902 11.7362C-6.17098 12.1014 -6.4455 11.7175 -6.71786 11.7157C-7.01798 11.7138 -7.45593 12.2873 -7.71166 11.8212C-7.64816 11.5746 -7.37635 11.5363 -7.31013 11.2926C-7.60866 11.3439 -7.86869 11.5952 -8.21961 11.6736C-8.367 11.7063 -8.51064 11.6979 -8.64252 11.7362C-8.89565 11.8109 -9.07236 11.9977 -9.33998 12.0968C-9.44468 12.135 -9.56957 12.1229 -9.67856 12.1593C-9.93384 12.2453 -10.2398 12.3975 -10.503 12.5404C-10.7722 12.6861 -11.0762 12.8393 -11.2433 12.9841C-11.3336 13.0625 -11.5685 13.3399 -11.5605 13.4287C-11.5499 13.5548 -11.3127 13.5959 -11.307 13.7248C-11.3122 13.8023 -11.4441 13.9714 -11.3491 14.0844C-11.2626 14.1871 -11.089 14.104 -10.9052 14.1264C-10.582 14.1666 -10.3707 14.4337 -10.1228 14.571C-9.93541 14.6737 -9.65717 14.798 -9.4456 14.8241C-9.15522 14.8606 -8.8299 14.7391 -8.79047 14.9727C-8.75201 15.1959 -9.06387 15.2762 -9.08628 15.4163C-8.92984 15.6227 -9.19259 15.7217 -9.19203 15.9029C-9.19146 16.0496 -9.01148 16.27 -8.854 16.2831C-8.64084 16.3018 -8.32907 16.0729 -8.24034 15.86C-8.13525 15.6068 -8.18009 15.2631 -7.98674 15.0782C-7.00143 15.1053 -6.16782 14.6308 -6.23132 13.6192C-6.23776 13.5193 -6.29436 13.3904 -6.27354 13.2802C-6.24253 13.1167 -5.96167 12.9794 -5.99902 12.773C-5.72293 12.688 -5.73461 12.2453 -5.44898 12.1808C-5.20968 12.1266 -4.93899 12.3499 -4.62442 12.3284C-4.52186 12.3219 -4.38893 12.2303 -4.28581 12.2443C-4.07922 12.2733 -3.95472 12.5283 -3.79937 12.646C-3.66207 12.7515 -3.51739 12.7179 -3.48208 12.8571C-3.52319 13.0943 -3.68982 13.1008 -3.67283 13.3222C-3.65722 13.5165 -3.45594 13.6631 -3.35552 13.6827C-3.20122 13.7117 -2.98071 13.6286 -2.82686 13.5557C-2.54385 13.4212 -2.30137 13.0177 -2.06525 13.0691C-1.87892 13.1093 -1.73321 13.7014 -1.70593 13.9144C-1.6765 14.1432 -1.73684 14.3179 -1.72676 14.528C-1.69948 14.8848 -1.2504 14.8484 -1.02921 15.0362C-0.962521 15.0922 -0.936293 15.237 -0.880812 15.3108C-0.77348 15.4537 -0.643754 15.4537 -0.62712 15.6068C-0.587622 15.9721 -0.958241 16.0029 -0.923585 16.4101C-0.999981 16.568 -1.19276 16.5586 -1.17716 16.7697C-1.15261 17.1032 -0.673076 16.8473 -0.542767 17.1079C-0.472266 17.248 -0.554446 17.3526 -0.606296 17.5524C-0.442362 17.7477 -0.443483 18.0596 -0.732952 18.0596C-0.908632 18.0596 -0.95712 17.8709 -1.13504 17.8271Z" fill="#8CC63F"/>
</g>
</g>
<defs>
<linearGradient id="paint0_linear_790_2227" x1="21.0282" y1="1.27122" x2="44.4295" y2="66.8352" gradientUnits="userSpaceOnUse">
<stop stop-color="#00A5FF"/>
<stop offset="1" stop-color="#0070BA"/>
</linearGradient>
<clipPath id="clip0_790_2227">
<rect width="64" height="64" fill="white"/>
</clipPath>
</defs>
</svg>
