<svg width="200" height="200" viewBox="0 0 200 200" fill="none" xmlns="http://www.w3.org/2000/svg">
<g id="corporate-2 1">
<path id="Vector" fill-rule="evenodd" clip-rule="evenodd" d="M192.518 109.642H82.4948C82.1372 109.631 81.7881 109.752 81.5136 109.982C81.4396 110.042 81.379 110.117 81.3358 110.202C81.2926 110.287 81.2677 110.381 81.2628 110.476V140.51C81.2628 142.307 87.1034 144.576 94.9226 146.806C109.916 151.082 131.362 154.036 137.871 154.759C144.385 154.038 165.617 151.226 180.358 146.971C188.03 144.756 193.75 142.45 193.75 140.51V110.476C193.745 110.381 193.72 110.287 193.677 110.202C193.634 110.117 193.573 110.042 193.499 109.982C193.225 109.752 192.876 109.631 192.518 109.642ZM188.993 149.572V184.064C188.987 185.415 188.448 186.709 187.493 187.664C186.538 188.619 185.244 189.159 183.893 189.164H91.1194C89.7686 189.159 88.4746 188.619 87.5194 187.664C86.5642 186.709 86.0251 185.415 86.0194 184.064V149.361C88.4609 150.327 90.9512 151.165 93.4804 151.871C108.965 156.287 131.178 159.321 137.534 160.013C137.738 160.039 137.944 160.042 138.148 160.02C144.418 159.34 166.452 156.452 181.82 152.015C184.252 151.327 186.646 150.512 188.993 149.572ZM104.421 104.371V99.3131C104.425 97.2631 105.241 95.2982 106.691 93.8486C108.14 92.399 110.105 91.5828 112.155 91.5787H160.976C163.026 91.5828 164.991 92.399 166.441 93.8486C167.891 95.2982 168.707 97.2631 168.711 99.3131V104.371H172.582V99.3131C172.571 96.2383 171.345 93.2926 169.171 91.1183C166.997 88.944 164.051 87.7176 160.976 87.7064H112.155C109.08 87.7169 106.134 88.9431 103.959 91.1174C101.784 93.2918 100.558 96.2379 100.547 99.3131V104.371H104.421ZM140.185 141.133C140.481 141.378 140.72 141.686 140.884 142.034C141.048 142.382 141.133 142.762 141.133 143.147C141.133 143.532 141.048 143.913 140.884 144.261C140.72 144.609 140.481 144.917 140.185 145.162C139.432 145.786 138.484 146.128 137.506 146.128C136.528 146.128 135.581 145.786 134.828 145.162C134.531 144.917 134.292 144.609 134.128 144.261C133.964 143.913 133.879 143.533 133.879 143.147C133.879 142.762 133.964 142.382 134.128 142.034C134.292 141.686 134.531 141.378 134.828 141.133C135.581 140.509 136.528 140.167 137.506 140.167C138.484 140.167 139.432 140.509 140.185 141.133ZM137.506 134.896C139.781 134.885 141.981 135.713 143.685 137.221C144.538 137.954 145.223 138.864 145.692 139.887C146.162 140.91 146.405 142.022 146.405 143.147C146.405 144.273 146.162 145.385 145.692 146.408C145.223 147.431 144.538 148.34 143.685 149.074C141.975 150.573 139.78 151.399 137.506 151.399C135.233 151.399 133.037 150.573 131.328 149.074C130.474 148.341 129.79 147.431 129.32 146.408C128.851 145.385 128.608 144.273 128.608 143.147C128.608 142.022 128.851 140.91 129.32 139.887C129.79 138.864 130.474 137.954 131.328 137.221C133.031 135.713 135.231 134.885 137.506 134.896ZM67.7612 24.9654H64.2679V28.4588H67.7612V24.9654ZM61.6323 19.6943H70.3968C71.0958 19.6943 71.7661 19.972 72.2604 20.4663C72.7547 20.9605 73.0323 21.6309 73.0323 22.3299V31.0936C73.0323 31.7925 72.7547 32.4629 72.2604 32.9572C71.7661 33.4514 71.0958 33.7291 70.3968 33.7291H61.6323C60.9333 33.7291 60.2629 33.4514 59.7686 32.9572C59.2743 32.4629 58.9965 31.7926 58.9964 31.0936V22.3299C58.9965 21.6309 59.2743 20.9605 59.7686 20.4662C60.2629 19.972 60.9333 19.6943 61.6323 19.6943ZM89.3167 24.9654H85.8233V28.4588H89.3167V24.9654ZM83.1878 19.6943H91.953C92.652 19.6943 93.3224 19.972 93.8166 20.4663C94.3109 20.9605 94.5886 21.6309 94.5886 22.3299V31.0936C94.5886 31.7925 94.3109 32.4629 93.8166 32.9572C93.3224 33.4514 92.652 33.7291 91.953 33.7291H83.1878C82.4888 33.7291 81.8184 33.4514 81.3242 32.9572C80.8299 32.4629 80.5523 31.7925 80.5523 31.0936V22.3299C80.5523 21.6309 80.8299 20.9605 81.3242 20.4663C81.8184 19.972 82.4888 19.6943 83.1878 19.6943ZM67.7612 46.6549H64.2679V50.1482H67.7612V46.6549ZM61.6323 41.3814H70.3968C71.0958 41.3814 71.7661 41.6591 72.2604 42.1534C72.7547 42.6476 73.0323 43.318 73.0323 44.017V52.7818C73.0323 53.4808 72.7547 54.1512 72.2604 54.6455C71.7661 55.1397 71.0958 55.4174 70.3968 55.4174H61.6323C60.9333 55.4174 60.2629 55.1397 59.7686 54.6455C59.2743 54.1512 58.9965 53.4809 58.9964 52.7818V44.0189C58.9965 43.3199 59.2743 42.6496 59.7686 42.1553C60.2629 41.6611 60.9333 41.3834 61.6323 41.3834V41.3814ZM89.3167 46.6549H85.8233V50.1482H89.3167V46.6549ZM83.1878 41.3814H91.953C92.652 41.3814 93.3224 41.6591 93.8166 42.1534C94.3109 42.6476 94.5886 43.318 94.5886 44.017V52.7818C94.5886 53.4808 94.3109 54.1512 93.8166 54.6455C93.3224 55.1397 92.652 55.4174 91.953 55.4174H83.1878C82.4888 55.4174 81.8184 55.1397 81.3242 54.6455C80.8299 54.1512 80.5523 53.4808 80.5523 52.7818V44.0189C80.5523 43.32 80.8299 42.6496 81.3242 42.1553C81.8184 41.6611 82.4888 41.3834 83.1878 41.3834V41.3814ZM67.7612 68.342H64.2679V71.8357H67.7612V68.3424V68.342ZM61.6323 63.0686H70.3968C71.0958 63.0686 71.7661 63.3462 72.2604 63.8405C72.7547 64.3347 73.0323 65.0051 73.0323 65.7041V74.4689C73.0323 74.8151 72.9642 75.1578 72.8317 75.4775C72.6993 75.7973 72.5051 76.0878 72.2604 76.3326C72.0157 76.5773 71.7251 76.7714 71.4054 76.9039C71.0856 77.0363 70.7429 77.1045 70.3968 77.1045H61.6323C60.9333 77.1045 60.2629 76.8268 59.7686 76.3326C59.2743 75.8383 58.9965 75.168 58.9964 74.4689V65.708C58.9965 65.009 59.2743 64.3386 59.7686 63.8444C60.2629 63.3501 60.9333 63.0725 61.6323 63.0725V63.0686ZM89.3167 68.342H85.8233V71.8357H89.3167V68.3424V68.342ZM83.1878 63.0686H91.953C92.652 63.0686 93.3224 63.3462 93.8166 63.8405C94.3109 64.3347 94.5886 65.0051 94.5886 65.7041V74.4689C94.5892 74.8154 94.5215 75.1587 94.3893 75.479C94.2571 75.7993 94.0631 76.0904 93.8183 76.3356C93.5735 76.5808 93.2828 76.7754 92.9627 76.9081C92.6426 77.0409 92.2995 77.1092 91.953 77.1092H83.1878C82.4888 77.1092 81.8184 76.8315 81.3242 76.3372C80.8299 75.843 80.5523 75.1726 80.5523 74.4736V65.708C80.5523 65.009 80.8299 64.3387 81.3242 63.8444C81.8184 63.3501 82.4888 63.0725 83.1878 63.0725V63.0686ZM67.7612 90.0291H64.2679V93.5225H67.7612V90.0291ZM61.6323 84.7557H70.3968C71.0958 84.7558 71.7662 85.0335 72.2604 85.5278C72.7547 86.0222 73.0323 86.6926 73.0323 87.3916V96.1561C73.0323 96.855 72.7547 97.5254 72.2604 98.0197C71.7661 98.5139 71.0958 98.7916 70.3968 98.7916H61.6323C60.9333 98.7916 60.2629 98.5139 59.7686 98.0197C59.2743 97.5254 58.9965 96.8551 58.9964 96.1561V87.3975C58.9964 86.6984 59.2741 86.0279 59.7684 85.5336C60.2628 85.0392 60.9332 84.7615 61.6323 84.7615V84.7557ZM89.3167 90.0291H85.8233V93.5225H89.3167V90.0291ZM83.1878 84.7557H91.953C92.6521 84.7558 93.3224 85.0335 93.8167 85.5278C94.3109 86.0222 94.5886 86.6926 94.5886 87.3916V96.1561C94.5886 96.855 94.3109 97.5254 93.8166 98.0197C93.3224 98.5139 92.652 98.7916 91.953 98.7916H83.1878C82.4888 98.7916 81.8184 98.5139 81.3242 98.0197C80.8299 97.5254 80.5523 96.855 80.5523 96.1561V87.3975C80.5523 86.6984 80.8299 86.028 81.3242 85.5337C81.8184 85.0394 82.4888 84.7616 83.1878 84.7615V84.7557ZM67.7612 111.716H64.2679V115.21H67.7612V111.716ZM61.6323 106.445H70.3968C70.7429 106.445 71.0856 106.513 71.4054 106.646C71.7251 106.778 72.0157 106.972 72.2604 107.217C72.5051 107.462 72.6993 107.752 72.8317 108.072C72.9642 108.392 73.0323 108.735 73.0323 109.081V117.851C73.0323 118.55 72.7547 119.221 72.2604 119.715C71.7661 120.209 71.0958 120.487 70.3968 120.487H61.6323C60.9333 120.487 60.2629 120.209 59.7686 119.715C59.2743 119.221 58.9965 118.55 58.9964 117.851V109.087C58.9965 108.387 59.2743 107.717 59.7686 107.223C60.2629 106.729 60.9333 106.451 61.6323 106.451V106.445ZM68.8636 183.651H80.7483V156.49H68.8636V183.657V183.651ZM50.4292 183.651V10.835H103.155V85.0506C102.098 85.7211 101.119 86.506 100.233 87.3912C98.6633 88.9543 97.4172 90.8121 96.5667 92.8579C95.7163 94.9038 95.2782 97.0975 95.2776 99.3131V104.371H82.4948C80.8429 104.367 79.2474 104.972 78.0132 106.07C77.3835 106.619 76.8776 107.296 76.5291 108.056C76.1805 108.815 75.9972 109.64 75.9913 110.476V140.51C75.9913 142.833 77.7683 144.912 80.7483 146.764V151.219H66.228C65.529 151.219 64.8586 151.497 64.3643 151.991C63.87 152.485 63.5922 153.156 63.5921 153.855V183.657L50.4292 183.651ZM6.24951 183.651H45.1558V53.974L6.2499 67.5389V183.657L6.24951 183.651ZM144.414 104.371H109.692V99.3131C109.695 98.6609 109.956 98.0364 110.417 97.5752C110.879 97.114 111.503 96.8532 112.155 96.8494H144.414V104.371ZM144.414 82.4353V37.9256H108.427V82.8514C109.65 82.5735 110.901 82.4335 112.155 82.4338L144.414 82.4353Z" fill="white"/>
</g>
</svg>
