<svg width="200" height="200" viewBox="0 0 200 200" fill="none" xmlns="http://www.w3.org/2000/svg">
<g id="crowd-of-users 1">
<g id="Group">
<g id="Group_2">
<path id="Vector" d="M101.137 78.9135C104.438 78.9135 107.584 79.6035 110.444 80.8447C110.659 76.1779 112.267 71.8622 114.848 68.2896C113.031 67.9099 111.157 67.7078 109.238 67.7078H91.0562C89.1413 67.7078 87.2672 67.9078 85.4646 68.2835C88.2145 72.099 89.8579 76.7556 89.8844 81.7981C93.2263 79.9607 97.0602 78.9135 101.137 78.9135Z" fill="white"/>
<path id="Vector_2" d="M100.143 66.2462C111.977 66.2462 121.57 56.6528 121.57 44.8188C121.57 32.9847 111.977 23.3914 100.143 23.3914C88.3088 23.3914 78.7155 32.9847 78.7155 44.8188C78.7155 56.6528 88.3088 66.2462 100.143 66.2462Z" fill="white"/>
<path id="Vector_3" d="M133.797 102.809C144.702 102.809 153.538 93.9696 153.538 83.068C153.538 72.1624 144.702 63.3269 133.797 63.3269C122.993 63.3269 114.233 72.0052 114.07 82.77C120.294 86.6733 124.659 93.2755 125.455 100.939C127.991 102.127 130.81 102.809 133.797 102.809Z" fill="white"/>
<path id="Vector_4" d="M66.4932 63.3247C55.5855 63.3247 46.75 72.1623 46.75 83.0658C46.75 93.9694 55.5855 102.805 66.4932 102.805C70.3557 102.805 73.9466 101.676 76.9925 99.7591C77.9622 93.4488 81.345 87.9307 86.1772 84.1744C86.1976 83.8049 86.2323 83.4394 86.2323 83.0658C86.2323 72.1623 77.3927 63.3247 66.4932 63.3247Z" fill="white"/>
<path id="Vector_5" d="M146.619 62.9043C152.844 66.8076 157.208 73.4098 158.003 81.0755C160.536 82.2616 163.357 82.9455 166.344 82.9455C177.25 82.9455 186.085 74.108 186.085 63.2044C186.085 52.3008 177.25 43.4633 166.344 43.4633C155.543 43.4612 146.783 52.1416 146.619 62.9043Z" fill="white"/>
<path id="Vector_6" d="M101.137 123.191C112.041 123.191 120.88 114.352 120.88 103.448C120.88 92.5442 112.041 83.7048 101.137 83.7048C90.2332 83.7048 81.3939 92.5442 81.3939 103.448C81.3939 114.352 90.2332 123.191 101.137 123.191Z" fill="white"/>
<path id="Vector_7" d="M142.175 104.155H125.549C125.367 110.806 122.53 116.795 118.039 121.101C130.426 124.788 139.493 136.277 139.493 149.849V156.161C155.906 155.555 165.366 150.909 165.989 150.59L167.308 149.92H167.445V129.432C167.449 115.493 156.11 104.155 142.175 104.155Z" fill="white"/>
<path id="Vector_8" d="M174.72 84.2908H158.099C157.919 90.9419 155.079 96.9316 150.59 101.237C162.978 104.924 172.042 116.411 172.042 129.983V136.296C188.453 135.691 197.916 131.045 198.538 130.724L199.857 130.057H199.998V109.568C199.998 95.6312 188.66 84.2908 174.72 84.2908Z" fill="white"/>
<path id="Vector_9" d="M84.2234 121.099C79.7546 116.814 76.9251 110.857 76.7169 104.248C76.1024 104.203 75.492 104.152 74.8633 104.152H58.117C44.1777 104.152 32.8373 115.493 32.8373 129.432V149.922L32.8883 150.239L34.299 150.684C44.9698 154.018 54.4954 155.549 62.7654 156.035V149.847C62.7695 136.277 71.8316 124.788 84.2234 121.099Z" fill="white"/>
<path id="Vector_10" d="M109.511 124.537H92.7588C78.8196 124.537 67.4791 135.881 67.4791 149.814V170.305L67.5322 170.625L68.9408 171.066C82.2431 175.221 93.8 176.609 103.309 176.609C121.889 176.609 132.656 171.311 133.321 170.974L134.64 170.305H134.779V149.814C134.785 135.877 123.446 124.537 109.511 124.537Z" fill="white"/>
<path id="Vector_11" d="M33.6559 83.5743C36.6426 83.5743 39.4619 82.8904 41.9974 81.7043C42.7936 74.0385 47.1562 67.4343 53.3807 63.531C53.2174 52.7704 44.4574 44.09 33.6559 44.09C22.7483 44.09 13.9127 52.9275 13.9127 63.8331C13.9127 74.7367 22.7483 83.5743 33.6559 83.5743Z" fill="white"/>
<path id="Vector_12" d="M49.408 101.868C44.9208 97.5624 42.0811 91.5707 41.9014 84.9175H25.2776C11.3384 84.9195 0 96.26 0 110.197V130.688H0.140862L1.45966 131.355C2.08435 131.669 11.5425 136.322 27.9561 136.924V130.612C27.9561 117.042 37.0182 105.553 49.408 101.868Z" fill="white"/>
<path id="Vector_13" d="M56.7451 61.3731C59.1132 60.4136 62.7267 59.2357 66.1768 59.2357C70.1924 59.2357 74.1202 60.2687 77.6234 62.2346C78.4032 61.4691 79.1177 60.6362 79.7669 59.744C76.4393 55.3732 74.6224 50.0164 74.6224 44.5064C74.6224 40.795 75.4512 37.1121 77.0313 33.7662C73.4342 30.5161 68.845 28.7421 63.9679 28.7421C55.0915 28.7421 47.3645 34.7501 45.1025 43.2121C51.7333 47.0705 56.0531 53.8156 56.7451 61.3731Z" fill="white"/>
<path id="Vector_14" d="M120.686 58.6273C121.372 59.7175 122.175 60.7443 123.085 61.6997C126.327 60.0829 129.891 59.2336 133.48 59.2336C137.01 59.2336 140.393 60.136 142.61 60.8913C143.304 52.6989 148.259 45.4679 155.675 41.8035C152.956 34.0356 145.595 28.7339 137.259 28.7339C131.87 28.7339 126.766 30.9469 123.081 34.842C124.375 37.9287 125.031 41.1726 125.031 44.4982C125.029 49.5917 123.53 54.4464 120.686 58.6273Z" fill="white"/>
</g>
</g>
</g>
</svg>
