<svg width="200" height="200" viewBox="0 0 200 200" fill="none" xmlns="http://www.w3.org/2000/svg">
<g id="government-4 2" clip-path="url(#clip0_794_2733)">
<path id="Vector" d="M0.0012207 200H78.1216V155.21H121.879V200H199.999V111.584H0.0012207V200ZM170.323 127.667H182.044V147.071H170.323V127.667ZM170.323 158.792H182.044V178.196H170.323V158.792ZM146.102 127.667H157.822V147.071H146.102V127.667ZM146.102 158.792H157.822V178.196H146.102V158.792ZM78.1216 129.555H121.879V141.276H78.1216V129.555ZM42.1779 127.667H53.8985V147.071H42.1779V127.667ZM42.1779 158.792H53.8985V178.196H42.1779V158.792ZM17.9561 127.667H29.6767V147.071H17.9561V127.667ZM29.6767 158.792V178.196H17.9561V158.792H29.6767Z" fill="white"/>
<path id="Vector_2" d="M89.842 166.931H110.158V200H89.842V166.931Z" fill="white"/>
<path id="Vector_3" d="M27.332 80.3271H172.668V99.8635H27.332V80.3271Z" fill="white"/>
<path id="Vector_4" d="M106.904 43.8648H105.86V33.8597H132.837V0H94.1398V43.8648H93.0958C76.7288 43.8648 62.7269 54.1567 57.2034 68.6059H142.797C137.273 54.1567 123.271 43.8648 106.904 43.8648Z" fill="white"/>
</g>
<defs>
<clipPath id="clip0_794_2733">
<rect width="200" height="200" fill="white"/>
</clipPath>
</defs>
</svg>
