<svg width="200" height="200" viewBox="0 0 200 200" fill="none" xmlns="http://www.w3.org/2000/svg">
<g id="promotion 1">
<path id="Vector" d="M53.502 125.873C55.3697 124.795 56.009 122.404 54.9317 120.537C53.8529 118.67 51.4634 118.03 49.5957 119.107C47.7281 120.186 47.0872 122.577 48.166 124.443C49.2433 126.311 51.6343 126.951 53.502 125.873Z" fill="white"/>
<path id="Vector_2" d="M37.4938 152.833L57.1655 186.908C61.4105 194.269 70.9594 196.994 78.511 192.628C85.9832 188.31 88.5513 178.763 84.2285 171.284L72.5097 150.984L82.6583 145.125C84.526 144.044 85.1669 141.656 84.0881 139.789L79.0084 130.99C79.6142 130.873 83.5967 130.092 153.828 116.315C162.511 115.843 167.712 106.347 163.327 98.7562L150.345 76.2709L158.641 63.7053C159.456 62.4693 159.505 60.8809 158.765 59.5991L150.952 46.0676C150.212 44.7859 148.807 44.0352 147.334 44.1221L132.306 45.0239L117.894 20.0605C115.807 16.4442 112.067 14.2546 107.892 14.2027C107.841 14.2012 107.793 14.2012 107.742 14.2012C103.708 14.2012 100.046 16.2092 97.8759 19.6043L46.8475 84.6098L13.6733 103.763C0.625548 111.293 -3.89411 128.032 3.6651 141.115C10.5712 153.078 25.1312 157.783 37.4938 152.833ZM77.4642 175.192C79.6218 178.924 78.3447 183.7 74.6017 185.863C70.8465 188.034 66.0644 186.7 63.9312 183.003L44.4 149.17L57.9315 141.357C80.5358 180.514 77.1011 174.565 77.4642 175.192ZM68.6035 144.217L64.6972 137.451L71.463 133.545L75.3692 140.31L68.6035 144.217ZM145.393 52.0643L150.792 61.4149L145.978 68.7056L136.673 52.5877L145.393 52.0643ZM104.41 23.8875C105.458 22.1724 107.121 21.9954 107.796 22.0137C108.462 22.0213 110.124 22.2288 111.127 23.9653L156.561 102.662C158.041 105.224 156.242 108.446 153.274 108.519C152.742 108.531 152.496 108.627 151.132 108.882L103.072 25.6376C104.08 24.3406 104.21 24.2155 104.41 23.8875ZM97.8729 32.2599L143.028 110.472L74.8794 123.839L54.158 87.9484L97.8729 32.2599ZM10.4308 137.208C8.71576 134.241 7.80939 130.871 7.80939 127.463C7.80939 120.495 11.5539 114.007 17.5796 110.528L48.0255 92.9503L67.5567 126.779L37.1108 144.359C27.7831 149.742 15.8157 146.535 10.4308 137.208Z" fill="white"/>
<path id="Vector_3" d="M41.4003 128.349C40.3215 126.481 37.9319 125.841 36.0643 126.919L29.2985 130.826C27.4339 131.903 25.0398 131.261 23.9625 129.396C22.8837 127.528 20.4942 126.887 18.6265 127.966C16.7588 129.045 16.118 131.434 17.1968 133.302C20.4118 138.872 27.5834 140.835 33.2048 137.591L39.9705 133.685C41.8382 132.606 42.479 130.218 41.4003 128.349Z" fill="white"/>
<path id="Vector_4" d="M194.194 22.5567L172.427 34.6691C170.543 35.7189 169.864 38.0978 170.914 39.9822C171.961 41.8652 174.338 42.5472 176.227 41.4959L197.992 29.3835C199.878 28.3337 200.556 25.9548 199.506 24.0704C198.457 22.1844 196.079 21.5069 194.194 22.5567Z" fill="white"/>
<path id="Vector_5" d="M191.911 63.0147L176.819 58.9711C174.735 58.4126 172.592 59.6486 172.034 61.7329C171.475 63.8173 172.713 65.9581 174.797 66.5165L189.891 70.5601C191.988 71.1232 194.119 69.8674 194.675 67.7983C195.233 65.7139 193.996 63.5716 191.911 63.0147Z" fill="white"/>
<path id="Vector_6" d="M153.984 8.36475L149.936 23.4587C149.377 25.5431 150.613 27.6839 152.698 28.2439C154.781 28.8008 156.923 27.5679 157.483 25.4821L161.53 10.3881C162.088 8.30372 160.852 6.16138 158.768 5.60291C156.685 5.04444 154.543 6.2804 153.984 8.36475Z" fill="white"/>
</g>
</svg>
