<svg width="200" height="200" viewBox="0 0 200 200" fill="none" xmlns="http://www.w3.org/2000/svg">
<g id="user-2 1">
<path id="Vector" d="M99.9999 103.125C117.834 103.125 132.292 88.6674 132.292 70.8332C132.292 52.999 117.834 38.5415 99.9999 38.5415C82.1657 38.5415 67.7083 52.999 67.7083 70.8332C67.7083 88.6674 82.1657 103.125 99.9999 103.125Z" fill="white"/>
<path id="Vector_2" d="M108.333 109.375H91.6666C85.2364 109.372 78.8685 110.636 72.9271 113.095C66.9857 115.554 61.5872 119.16 57.0404 123.707C52.4935 128.254 48.8874 133.652 46.4282 139.594C43.969 145.535 42.7049 151.903 42.7083 158.333V161.458H157.292V158.333C157.277 145.353 152.114 132.909 142.936 123.731C133.758 114.552 121.313 109.39 108.333 109.375Z" fill="white"/>
</g>
</svg>
